<svg width="14" height="20" viewBox="0 0 14 20" fill="none" xmlns="http://www.w3.org/2000/svg">
<path d="M0.00012207 20V17.476L7.08346 11.0151C9.20383 9.09465 10.264 7.36168 10.264 5.81619C10.264 4.99314 9.95383 4.31642 9.33346 3.78601C8.71309 3.24646 7.91679 2.97668 6.94457 2.97668C5.2779 2.97668 3.80568 3.90489 2.5279 5.76132L0.166789 3.86831C1.03716 2.53315 2.01864 1.55464 3.11123 0.932785C4.20383 0.310928 5.49086 0 6.97234 0C8.86123 0 10.4075 0.534979 11.6112 1.60494C12.8242 2.6749 13.4307 4.05121 13.4307 5.73388C13.4307 7.08733 13.102 8.32648 12.4446 9.4513C11.7872 10.5761 10.6992 11.8153 9.18068 13.1687L4.91679 17.0233H14.0001V20H0.00012207Z" fill="#B90028"/>
</svg>
