<svg width="14" height="20" viewBox="0 0 14 20" fill="none" xmlns="http://www.w3.org/2000/svg">
<path d="M6.99289 20C5.55262 20 4.2308 19.7121 3.02741 19.1364C1.82403 18.5515 0.81489 17.7153 0 16.6278L2.21726 14.695C3.50592 16.2851 5.07885 17.0802 6.93604 17.0802C8.09205 17.0802 9.02538 16.7649 9.73604 16.1343C10.4467 15.4946 10.802 14.6676 10.802 13.6532C10.802 13.0957 10.6883 12.6022 10.4609 12.1727C10.243 11.7432 9.9445 11.4051 9.56548 11.1583C9.18646 10.9116 8.74112 10.7151 8.22944 10.5689C7.71777 10.4227 7.16819 10.3541 6.58071 10.3633C6.00271 10.3633 5.40102 10.409 4.77563 10.5003L3.82335 8.78684L9.05381 2.94722H0.994924V0H13.1898V2.50857L8.44264 7.75874C10.044 7.94151 11.3706 8.59036 12.4223 9.70528C13.4741 10.8111 14 12.1544 14 13.7354C14 15.5632 13.3462 17.0665 12.0386 18.2454C10.7404 19.4151 9.05855 20 6.99289 20Z" fill="#B90028"/>
</svg>
