<svg width="48" height="48" viewBox="0 0 48 48" fill="none" xmlns="http://www.w3.org/2000/svg">
<path d="M38 28.01V21.322C38 19.686 38 18.868 37.696 18.132C37.392 17.396 36.814 16.818 35.656 15.662L26.184 6.184C25.186 5.186 24.688 4.688 24.068 4.392C23.9397 4.33036 23.8082 4.27562 23.674 4.228C23.028 4 22.322 4 20.912 4C14.422 4 11.176 4 8.978 5.772C8.53407 6.1305 8.12977 6.53548 7.772 6.98C6 9.18 6 12.426 6 18.92V28.01C6 35.556 6 39.33 8.344 41.674C10.23 43.56 13.04 43.928 18 44M24 5V6C24 11.66 24 14.49 25.758 16.248C27.514 18.006 30.344 18.006 36 18.006H37" stroke="#B90028" stroke-width="2" stroke-linecap="round" stroke-linejoin="round"/>
<path d="M36 39L38.89 40.926C40.26 41.84 40.944 42.296 41.47 42.014C42 41.73 42 40.908 42 39.262V36.74C42 35.094 42 34.272 41.472 33.988C40.944 33.708 40.26 34.162 38.892 35.076L36 37M36 39V37M36 39C36 40.87 36 41.804 35.598 42.5C35.3347 42.956 34.956 43.3347 34.5 43.598C33.804 44 32.87 44 31 44H30C27.172 44 25.758 44 24.88 43.12C24 42.244 24 40.83 24 38C24 35.17 24 33.758 24.88 32.88C25.756 32 27.17 32 30 32H31C32.87 32 33.804 32 34.5 32.402C34.956 32.6653 35.3347 33.044 35.598 33.5C36 34.196 36 35.13 36 37" stroke="#B90028" stroke-width="2" stroke-linejoin="round"/>
</svg>
