<svg width="20" height="21" viewBox="0 0 20 21" fill="none" xmlns="http://www.w3.org/2000/svg">
<path d="M14 10.5C14 10.5 11.054 14.5 10 14.5C8.946 14.5 6 10.5 6 10.5M10 14V1.5" stroke="white" stroke-width="1.5" stroke-linecap="round" stroke-linejoin="round"/>
<path d="M15 6.5C16.0609 6.5 17.0783 6.92143 17.8284 7.67157C18.5786 8.42172 19 9.43913 19 10.5V13C19 15.335 19 16.502 18.528 17.386C18.1551 18.0837 17.5837 18.6551 16.886 19.028C16.002 19.5 14.835 19.5 12.5 19.5H7.5C5.166 19.5 3.998 19.5 3.114 19.027C2.41685 18.6542 1.84581 18.0831 1.473 17.386C1 16.502 1 15.335 1 13V10.499C1.00026 9.43865 1.42153 8.4218 2.17122 7.67193C2.9209 6.92205 3.93765 6.50053 4.998 6.5H5" stroke="white" stroke-width="1.5" stroke-linecap="round" stroke-linejoin="round"/>
</svg>
