<svg width="48" height="48" viewBox="0 0 48 48" fill="none" xmlns="http://www.w3.org/2000/svg">
<path d="M6 32.0001L14.94 23.0601C15.2762 22.7238 15.6753 22.4571 16.1145 22.2751C16.5538 22.0932 17.0245 21.9995 17.5 21.9995C17.9755 21.9995 18.4462 22.0932 18.8855 22.2751C19.3247 22.4571 19.7238 22.7238 20.06 23.0601L28 31.0001M28 31.0001L31 34.0001M28 31.0001L31.94 27.0601C32.2762 26.7238 32.6753 26.4571 33.1145 26.2751C33.5538 26.0932 34.0245 25.9995 34.5 25.9995C34.9755 25.9995 35.4462 26.0932 35.8855 26.2751C36.3247 26.4571 36.7238 26.7238 37.06 27.0601L42 32.0001" stroke="#B90028" stroke-width="3" stroke-linecap="round" stroke-linejoin="round"/>
<path d="M43 18V24C43 32.46 43 36.69 40.604 39.494C40.2627 39.894 39.8927 40.264 39.494 40.604C36.69 43 32.46 43 24 43C15.54 43 11.31 43 8.506 40.604C8.106 40.2627 7.736 39.8927 7.396 39.494C5 36.69 5 32.46 5 24C5 15.54 5 11.31 7.396 8.506C7.73733 8.106 8.10733 7.736 8.506 7.396C11.31 5 15.54 5 24 5H28" stroke="#B90028" stroke-width="3" stroke-linecap="round" stroke-linejoin="round"/>
<path d="M29 12.076C29 12.076 32.22 12.65 34 17.002C34 17.002 37.352 7.00195 43 5.00195" stroke="#B90028" stroke-width="3" stroke-linecap="round" stroke-linejoin="round"/>
</svg>
