<svg width="246" height="276" viewBox="0 0 246 276" fill="none" xmlns="http://www.w3.org/2000/svg">
<rect y="91.0059" width="361.463" height="237.012" rx="19.0244" transform="rotate(-14.5823 0 91.0059)" fill="#F1F1F1"/>
<rect x="0.483361" y="91.2896" width="360.67" height="236.219" rx="18.628" transform="rotate(-14.5823 0.483361 91.2896)" stroke="black" stroke-opacity="0.1" stroke-width="0.792682"/>
<path d="M23.5048 111.397C21.9515 111.801 20.4282 111.674 18.935 111.018L19.6361 109.131C20.7007 109.596 21.7799 109.686 22.8737 109.401C23.538 109.228 24.0075 108.983 24.2824 108.667C24.5622 108.349 24.6463 107.975 24.5345 107.545C24.4293 107.141 24.2001 106.864 23.847 106.716C23.4925 106.563 23.0531 106.555 22.5287 106.691L20.3786 107.251L19.8835 105.348L21.8763 104.829C22.3358 104.71 22.6662 104.504 22.8674 104.212C23.0737 103.918 23.1261 103.576 23.0248 103.187C22.926 102.807 22.6939 102.55 22.3283 102.416C21.9678 102.281 21.5104 102.285 20.956 102.429C19.987 102.681 19.1608 103.256 18.4771 104.154L16.9669 102.899C17.8772 101.622 19.0766 100.79 20.5649 100.403C21.7636 100.091 22.7682 100.11 23.5789 100.459C24.3896 100.808 24.9112 101.43 25.1438 102.324C25.4024 103.317 25.2083 104.232 24.5616 105.067C25.1312 105.206 25.6131 105.47 26.0074 105.858C26.4066 106.245 26.6777 106.713 26.8206 107.262C27.0623 108.191 26.8988 109.028 26.3301 109.774C25.7601 110.514 24.8183 111.055 23.5048 111.397ZM31.3522 109.323C30.5281 109.537 29.8054 109.485 29.184 109.167C28.5676 108.848 28.1639 108.321 27.9729 107.587C27.7611 106.772 27.8932 106.05 28.3691 105.42C28.845 104.789 29.5974 104.34 30.6262 104.073C31.3404 103.887 32.0488 103.812 32.7513 103.848L32.6792 103.571C32.5597 103.111 32.3278 102.814 31.9836 102.68C31.6393 102.545 31.1525 102.56 30.5232 102.724C29.809 102.91 29.0406 103.317 28.218 103.947L27.2599 102.509C27.784 102.085 28.2809 101.75 28.7505 101.505C29.22 101.26 29.747 101.062 30.3313 100.91C31.4751 100.612 32.4261 100.65 33.1844 101.024C33.9428 101.397 34.4506 102.078 34.7078 103.067L35.9922 108.004L34.0594 108.507L33.778 107.548C33.5404 107.967 33.2065 108.334 32.7764 108.649C32.3514 108.962 31.8766 109.187 31.3522 109.323ZM30.0264 106.932C30.1056 107.237 30.2716 107.444 30.5242 107.555C30.7819 107.664 31.1129 107.666 31.5175 107.56C32.0869 107.412 32.5236 107.133 32.8276 106.724C33.1303 106.309 33.2454 105.85 33.1731 105.346C32.4206 105.323 31.7946 105.377 31.2951 105.506C30.7957 105.636 30.437 105.826 30.2191 106.074C30.0048 106.317 29.9406 106.603 30.0264 106.932ZM37.8615 107.518L35.8132 99.6439L41.372 98.1977L41.8787 100.146L38.47 101.032L40.0116 106.958L37.8615 107.518ZM49.4663 104.699C48.3725 104.983 47.3924 104.844 46.5258 104.28L47.6835 108.73L45.5334 109.289L42.5671 97.8868L44.5973 97.3587L44.8968 98.4485C45.1262 97.9569 45.4471 97.5402 45.8594 97.1983C46.2754 96.8501 46.7631 96.6033 47.3224 96.4577C48.4212 96.1719 49.4253 96.3213 50.3346 96.9059C51.2439 97.4906 51.8551 98.3847 52.1682 99.5884C52.4827 100.797 52.386 101.881 51.8781 102.839C51.369 103.793 50.5651 104.413 49.4663 104.699ZM45.7104 101.268C45.8819 101.928 46.2245 102.414 46.7382 102.729C47.2556 103.037 47.8289 103.109 48.4582 102.945C49.0975 102.779 49.563 102.436 49.8547 101.918C50.1465 101.399 50.2059 100.808 50.0331 100.144C49.8616 99.4846 49.5228 99.0021 49.0167 98.6965C48.5093 98.3859 47.9359 98.3138 47.2967 98.4801C46.6674 98.6438 46.2025 98.9887 45.9021 99.5148C45.6054 100.035 45.5415 100.619 45.7104 101.268ZM56.4422 106.531C55.9128 106.669 55.3856 106.713 54.8606 106.663L54.8329 104.742C55.116 104.765 55.4199 104.733 55.7446 104.649C56.1141 104.553 56.3911 104.388 56.5753 104.153C56.7659 103.922 56.884 103.577 56.9297 103.117L56.9601 102.957L51.3287 95.6075L53.6736 94.9974L56.1434 98.4342L57.2249 100.009L57.3196 98.1283L57.6142 93.9723L59.9067 93.3759L58.9493 103.439C58.7762 105.111 57.9405 106.141 56.4422 106.531ZM65.6464 100.449C64.2529 100.812 63.006 100.723 61.9056 100.183L62.4887 98.5192C63.3469 98.8665 64.203 98.9291 65.0571 98.7069C65.5366 98.5822 65.883 98.4174 66.0963 98.2126C66.3146 98.0065 66.3894 97.7711 66.3205 97.5064C66.2595 97.2716 66.1053 97.1198 65.8581 97.0508C65.6095 96.9768 65.2955 96.9892 64.9159 97.0879L63.3201 97.5031L62.8894 95.8474L64.3653 95.4635C64.6999 95.3764 64.9434 95.2464 65.0957 95.0735C65.248 94.9005 65.2956 94.7042 65.2384 94.4844C65.1098 93.99 64.6259 93.8519 63.7869 94.0702C63.0377 94.2651 62.374 94.6964 61.7958 95.364L60.5324 94.197C61.3305 93.2268 62.3463 92.5812 63.58 92.2603C64.5789 92.0004 65.4001 92.0108 66.0436 92.2913C66.6859 92.5668 67.0902 93.0242 67.2565 93.6635C67.4332 94.3427 67.2672 94.9858 66.7585 95.5927C67.1936 95.6662 67.5607 95.8373 67.8599 96.1061C68.1578 96.3698 68.3601 96.7065 68.4666 97.116C68.6615 97.8652 68.5065 98.5401 68.0015 99.1407C67.4952 99.7364 66.7102 100.173 65.6464 100.449ZM70.4959 99.0277L68.4475 91.154L70.5676 90.6024L71.8052 95.3596L74.3135 89.628L76.1864 89.1407L78.2347 97.0145L76.1296 97.5621L74.8881 92.7899L72.3688 98.5405L70.4959 99.0277ZM82.0744 96.0156L80.5327 90.0897L77.9256 90.7679L77.4189 88.8201L84.7832 86.9042L85.29 88.8521L82.6829 89.5303L84.2245 95.4562L82.0744 96.0156ZM91.6228 93.7475C90.3243 94.0853 89.1817 93.9773 88.1951 93.4234C87.2122 92.8633 86.5609 91.9689 86.2413 90.7402C85.9255 89.5266 86.0515 88.4326 86.6193 87.4584C87.187 86.4842 88.0777 85.8392 89.2914 85.5235C90.1854 85.2909 91.0223 85.3104 91.8022 85.5821C92.5871 85.8525 93.2263 86.3315 93.7198 87.019C94.2133 87.7065 94.504 88.5267 94.5919 89.4797L88.5611 91.0486C88.8155 91.473 89.1863 91.7711 89.6736 91.943C90.1646 92.1085 90.7048 92.1146 91.2941 91.9613C92.2031 91.7248 92.9287 91.2241 93.4709 90.4592L94.794 91.5787C94.0983 92.6556 93.0413 93.3785 91.6228 93.7475ZM88.1524 89.5392L92.2654 88.4692C92.0178 87.9683 91.6701 87.6055 91.2223 87.3807C90.7796 87.1546 90.291 87.1111 89.7566 87.2501C89.2322 87.3866 88.8242 87.6633 88.5328 88.0804C88.2414 88.4975 88.1146 88.9838 88.1524 89.5392ZM103.812 90.5764C102.608 90.8896 101.516 90.7604 100.536 90.189C99.554 89.6125 98.9059 88.72 98.5914 87.5113C98.2796 86.3127 98.41 85.2256 98.9828 84.25C99.5592 83.2682 100.457 82.6188 101.675 82.3017C102.345 82.1276 102.996 82.0889 103.629 82.1855C104.261 82.2771 104.824 82.4958 105.319 82.8415L104.441 84.5097C104.123 84.3099 103.77 84.1831 103.383 84.1292C102.999 84.0691 102.625 84.0864 102.26 84.1812C101.641 84.3424 101.186 84.6821 100.894 85.2006C100.607 85.7178 100.549 86.3035 100.719 86.9578C100.892 87.6221 101.227 88.1108 101.724 88.424C102.222 88.7372 102.793 88.81 103.437 88.6424C103.846 88.5358 104.209 88.3509 104.524 88.0875C104.84 87.8242 105.079 87.5033 105.242 87.125L106.877 88.0595C106.619 88.6865 106.226 89.2154 105.698 89.646C105.175 90.0753 104.546 90.3854 103.812 90.5764ZM108.416 89.1628L106.367 81.2891L110.51 80.2113C111.299 80.006 111.979 80.0265 112.55 80.2726C113.12 80.5188 113.486 80.949 113.646 81.5633C113.739 81.9229 113.741 82.2771 113.65 82.626C113.564 82.9735 113.396 83.2787 113.144 83.5414C113.557 83.6101 113.917 83.7856 114.225 84.0681C114.533 84.3505 114.743 84.704 114.853 85.1286C115.024 85.7878 114.911 86.3879 114.513 86.9286C114.119 87.4631 113.515 87.8362 112.701 88.048L108.416 89.1628ZM110.088 87.136L111.961 86.6488C112.301 86.5604 112.538 86.4161 112.672 86.2158C112.812 86.0142 112.844 85.7686 112.768 85.4789C112.611 84.8746 112.186 84.6627 111.491 84.8433L109.618 85.3305L110.088 87.136ZM109.25 83.9146L110.981 83.4644C111.3 83.3812 111.524 83.2458 111.651 83.0581C111.782 82.8641 111.813 82.6347 111.744 82.37C111.674 82.1003 111.535 81.9151 111.327 81.8145C111.123 81.7075 110.862 81.6956 110.542 81.7788L108.811 82.229L109.25 83.9146ZM123.465 84.24C122.869 85.2108 121.935 85.8618 120.661 86.1931C119.388 86.5245 118.252 86.412 117.254 85.8557C116.255 85.2945 115.595 84.3995 115.276 83.1709C114.959 81.9523 115.1 80.8569 115.701 79.8849C116.3 78.9078 117.236 78.2537 118.51 77.9223C119.783 77.591 120.916 77.7041 121.909 78.2617C122.907 78.8179 123.565 79.7079 123.884 80.9315C124.203 82.1602 124.064 83.263 123.465 84.24ZM117.591 80.8488C117.293 81.3636 117.231 81.9531 117.403 82.6174C117.576 83.2817 117.919 83.7684 118.431 84.0777C118.949 84.3857 119.527 84.4566 120.166 84.2902C120.805 84.1239 121.273 83.7809 121.57 83.2611C121.872 82.74 121.936 82.1474 121.763 81.4831C121.591 80.8188 121.246 80.3352 120.73 80.0322C120.219 79.7279 119.644 79.6589 119.005 79.8252C118.365 79.9915 117.894 80.3327 117.591 80.8488ZM130.292 83.6877C128.993 84.0255 127.851 83.9175 126.864 83.3636C125.881 82.8035 125.23 81.9091 124.91 80.6804C124.595 79.4668 124.721 78.3728 125.288 77.3986C125.856 76.4244 126.747 75.7794 127.96 75.4637C128.854 75.2311 129.691 75.2506 130.471 75.5223C131.256 75.7927 131.895 76.2717 132.389 76.9592C132.882 77.6467 133.173 78.4669 133.261 79.4199L127.23 80.9888C127.485 81.4132 127.855 81.7113 128.343 81.8832C128.834 82.0487 129.374 82.0548 129.963 81.9015C130.872 81.665 131.598 81.1643 132.14 80.3994L133.463 81.5189C132.767 82.5958 131.71 83.3187 130.292 83.6877ZM126.821 79.4794L130.934 78.4094C130.687 77.9086 130.339 77.5457 129.891 77.3209C129.449 77.0949 128.96 77.0513 128.426 77.1903C127.901 77.3268 127.493 77.6035 127.202 78.0206C126.91 78.4377 126.784 78.924 126.821 79.4794ZM138.982 81.2109L136.934 73.3372L141.077 72.2594C141.866 72.0541 142.546 72.0745 143.116 72.3207C143.687 72.5668 144.052 72.9971 144.212 73.6114C144.306 73.971 144.307 74.3252 144.217 74.674C144.131 75.0216 143.962 75.3267 143.711 75.5895C144.123 75.6581 144.484 75.8337 144.792 76.1161C145.1 76.3986 145.309 76.7521 145.42 77.1766C145.591 77.8359 145.478 78.4359 145.08 78.9767C144.686 79.5112 144.082 79.8843 143.268 80.0961L138.982 81.2109ZM140.655 79.1841L142.528 78.6968C142.867 78.6085 143.104 78.4642 143.239 78.2639C143.378 78.0623 143.41 77.8166 143.335 77.5269C143.178 76.9226 142.752 76.7107 142.058 76.8914L140.185 77.3786L140.655 79.1841ZM139.817 75.9627L141.547 75.5125C141.867 75.4293 142.09 75.2939 142.217 75.1061C142.348 74.9121 142.379 74.6828 142.31 74.4181C142.24 74.1484 142.101 73.9632 141.894 73.8625C141.69 73.7556 141.428 73.7437 141.109 73.8268L139.378 74.277L139.817 75.9627ZM147.429 79.0134L145.381 71.1396L147.501 70.5881L148.739 75.3453L151.247 69.6136L153.12 69.1264L155.168 77.0001L153.063 77.5478L151.822 72.7756L149.302 78.5262L147.429 79.0134ZM156.939 78.9312L155.849 74.7433L156.845 74.4841C157.006 74.2185 157.1 73.9059 157.129 73.5464C157.164 73.1856 157.131 72.7115 157.031 72.1241L156.345 68.2873L162.825 66.6014L164.367 72.5273L165.731 72.1726L166.82 76.3605L164.842 76.875L164.26 74.635L158.364 76.1688L158.946 78.4088L156.939 78.9312ZM159.202 73.919L162.289 73.1161L161.219 69.0031L158.791 69.6346L159.17 71.7677C159.311 72.5949 159.321 73.3121 159.202 73.919ZM171.118 73.0666C169.82 73.4044 168.677 73.2964 167.691 72.7425C166.708 72.1824 166.057 71.288 165.737 70.0593C165.421 68.8457 165.547 67.7517 166.115 66.7775C166.683 65.8033 167.573 65.1583 168.787 64.8426C169.681 64.61 170.518 64.6295 171.298 64.9012C172.083 65.1716 172.722 65.6506 173.215 66.3381C173.709 67.0256 174 67.8458 174.088 68.7988L168.057 70.3677C168.311 70.7921 168.682 71.0902 169.169 71.2621C169.66 71.4276 170.2 71.4337 170.79 71.2804C171.699 71.0439 172.424 70.5432 172.967 69.7783L174.29 70.8978C173.594 71.9747 172.537 72.6976 171.118 73.0666ZM167.648 68.8583L171.761 67.7883C171.513 67.2875 171.166 66.9246 170.718 66.6998C170.275 66.4738 169.787 66.4302 169.252 66.5692C168.728 66.7057 168.32 66.9824 168.028 67.3995C167.737 67.8166 167.61 68.3029 167.648 68.8583ZM183.073 68.7328C182.478 69.7035 181.543 70.3546 180.27 70.6859C178.996 71.0172 177.86 70.9048 176.862 70.3485C175.863 69.7872 175.204 68.8923 174.884 67.6637C174.567 66.445 174.709 65.3497 175.309 64.3776C175.908 63.4006 176.844 62.7464 178.118 62.4151C179.392 62.0838 180.525 62.1969 181.518 62.7544C182.516 63.3107 183.174 64.2007 183.492 65.4243C183.812 66.6529 183.672 67.7558 183.073 68.7328ZM177.2 65.3416C176.902 65.8564 176.839 66.4459 177.012 67.1101C177.185 67.7744 177.527 68.2612 178.04 68.5705C178.557 68.8785 179.135 68.9493 179.775 68.783C180.414 68.6167 180.882 68.2736 181.179 67.7539C181.48 67.2328 181.545 66.6401 181.372 65.9758C181.199 65.3116 180.855 64.828 180.339 64.525C179.828 64.2207 179.252 64.1517 178.613 64.318C177.974 64.4843 177.503 64.8255 177.2 65.3416Z" fill="black"/>
<rect x="22.3371" y="124.92" width="335.304" height="185.488" rx="5.94512" transform="rotate(-14.5823 22.3371 124.92)" stroke="black" stroke-opacity="0.25" stroke-width="0.792682" stroke-dasharray="7.93 7.93"/>
<g clip-path="url(#clip0_42_1026)">
<path d="M214.191 152.418L212.857 147.287C212.53 146.032 212.367 145.405 211.987 144.901C211.607 144.397 211.048 144.069 209.929 143.413L200.771 138.032C199.806 137.466 199.325 137.183 198.79 137.08C198.679 137.058 198.567 137.042 198.455 137.033C197.914 136.987 197.372 137.128 196.291 137.409C191.312 138.704 188.822 139.352 187.489 141.15C187.22 141.514 186.991 141.905 186.805 142.317C185.885 144.359 186.532 146.849 187.828 151.831L189.643 158.804C191.149 164.593 191.902 167.488 194.168 168.819C195.991 169.889 198.22 169.611 202.04 168.676M198.859 137.56L199.059 138.327C200.188 142.669 200.753 144.84 202.453 145.838C204.15 146.836 206.322 146.271 210.66 145.142L211.428 144.943" stroke="#B90028" stroke-width="1.58536" stroke-linecap="round" stroke-linejoin="round"/>
<path d="M214.85 161.248L217.452 162.149C218.685 162.577 219.301 162.79 219.648 162.469C219.998 162.145 219.834 161.514 219.505 160.252L219.002 158.317C218.673 157.054 218.509 156.424 218.048 156.311C217.587 156.202 217.153 156.686 216.286 157.661L214.451 159.714M214.85 161.248L214.451 159.714M214.85 161.248C215.223 162.683 215.41 163.399 215.24 164.013C215.129 164.416 214.914 164.782 214.617 165.075C214.163 165.522 213.447 165.708 212.012 166.082L211.245 166.281C209.076 166.846 207.991 167.128 207.142 166.628C206.292 166.132 206.01 165.047 205.445 162.876C204.88 160.705 204.598 159.622 205.098 158.772C205.594 157.922 206.679 157.64 208.85 157.076L209.617 156.876C211.052 156.503 211.768 156.316 212.383 156.486C212.785 156.597 213.151 156.812 213.444 157.109C213.891 157.563 214.078 158.279 214.451 159.714" stroke="#B90028" stroke-width="1.58536" stroke-linejoin="round"/>
</g>
<path d="M104.72 223.809L102.827 216.533L98.5897 217.635L100.483 224.911L99.1101 225.268L96.8742 216.674L103.856 214.858L106.092 223.452L104.72 223.809ZM110.875 222.368C109.9 222.621 109.03 222.523 108.265 222.074C107.502 221.62 106.995 220.909 106.744 219.942C106.495 218.987 106.591 218.124 107.03 217.353C107.473 216.581 108.159 216.074 109.085 215.833C109.777 215.653 110.428 215.673 111.04 215.894C111.656 216.113 112.158 216.494 112.547 217.038C112.935 217.577 113.16 218.213 113.223 218.948L108.249 220.242C108.469 220.628 108.793 220.909 109.223 221.083C109.652 221.257 110.106 221.282 110.586 221.157C111.337 220.961 111.918 220.522 112.329 219.839L113.337 220.492C113.12 220.937 112.804 221.322 112.39 221.647C111.975 221.973 111.47 222.213 110.875 222.368ZM107.944 219.118L111.702 218.141C111.49 217.688 111.176 217.36 110.761 217.157C110.348 216.948 109.894 216.909 109.399 217.037C108.915 217.163 108.542 217.416 108.278 217.796C108.017 218.171 107.906 218.612 107.944 219.118ZM120.731 218.818C120.312 219.584 119.654 220.084 118.759 220.317C117.864 220.549 117.051 220.424 116.32 219.94L117.261 223.56L115.937 223.905L113.575 214.825L114.875 214.487L115.092 215.32C115.501 214.514 116.155 213.994 117.054 213.76C117.949 213.527 118.766 213.643 119.505 214.108C120.249 214.571 120.745 215.28 120.993 216.235C121.242 217.19 121.154 218.051 120.731 218.818ZM115.866 216.008C115.593 216.484 115.534 217.02 115.689 217.615C115.844 218.21 116.157 218.652 116.628 218.938C117.103 219.22 117.63 219.286 118.209 219.135C118.792 218.983 119.219 218.672 119.489 218.201C119.762 217.725 119.82 217.185 119.663 216.581C119.506 215.978 119.193 215.537 118.723 215.258C118.257 214.974 117.732 214.908 117.149 215.06C116.569 215.21 116.142 215.526 115.866 216.008ZM126.08 218.412C125.106 218.666 124.235 218.568 123.47 218.118C122.708 217.664 122.201 216.953 121.949 215.987C121.701 215.032 121.796 214.169 122.235 213.397C122.679 212.625 123.364 212.118 124.291 211.877C124.982 211.697 125.634 211.718 126.246 211.938C126.861 212.158 127.364 212.539 127.753 213.082C128.14 213.621 128.366 214.258 128.429 214.992L123.454 216.286C123.674 216.673 123.999 216.953 124.428 217.127C124.857 217.301 125.312 217.326 125.791 217.201C126.542 217.006 127.123 216.567 127.534 215.884L128.542 216.537C128.325 216.981 128.01 217.366 127.595 217.692C127.181 218.017 126.676 218.257 126.08 218.412ZM123.149 215.162L126.907 214.185C126.695 213.732 126.382 213.404 125.966 213.201C125.554 212.993 125.1 212.953 124.604 213.082C124.121 213.208 123.747 213.46 123.483 213.84C123.223 214.215 123.111 214.656 123.149 215.162ZM131.642 216.805L130.333 211.771L128.169 212.334L127.851 211.111L133.473 209.648L133.791 210.871L131.657 211.426L132.967 216.461L131.642 216.805ZM137.733 215.31C137.065 215.484 136.48 215.446 135.976 215.198C135.471 214.945 135.142 214.527 134.99 213.944C134.826 213.313 134.926 212.747 135.291 212.247C135.656 211.747 136.222 211.397 136.989 211.197C137.6 211.038 138.241 210.985 138.912 211.036L138.829 210.719C138.722 210.307 138.52 210.04 138.223 209.916C137.927 209.793 137.507 209.802 136.963 209.943C136.376 210.096 135.765 210.421 135.131 210.919L134.465 209.909C134.876 209.584 135.257 209.329 135.61 209.144C135.962 208.954 136.339 208.807 136.743 208.702C137.634 208.47 138.371 208.498 138.953 208.786C139.535 209.07 139.925 209.595 140.125 210.362L141.157 214.33L139.892 214.659L139.673 213.865C139.49 214.211 139.229 214.511 138.89 214.766C138.554 215.016 138.168 215.197 137.733 215.31ZM136.298 213.534C136.368 213.805 136.524 213.993 136.764 214.097C137.009 214.2 137.318 214.202 137.694 214.105C138.217 213.968 138.617 213.715 138.891 213.345C139.166 212.975 139.272 212.568 139.207 212.124C138.519 212.085 137.927 212.131 137.432 212.26C136.992 212.374 136.673 212.542 136.475 212.764C136.28 212.981 136.221 213.238 136.298 213.534ZM153.059 213.16L152.589 211.356L142.844 213.891L141.216 207.634L142.541 207.289L143.849 212.318L146.834 211.541L145.526 206.513L146.826 206.175L148.134 211.203L151.113 210.428L149.805 205.4L151.129 205.055L152.438 210.083L153.522 209.801L154.311 212.834L153.059 213.16ZM154.972 210.736L153.344 204.479L154.657 204.137L155.76 208.381L158.031 203.26L159.259 202.94L160.887 209.197L159.575 209.538L158.469 205.289L156.194 210.418L154.972 210.736ZM164.151 208.348L162.841 203.314L160.677 203.876L160.359 202.654L165.981 201.191L166.299 202.414L164.166 202.969L165.475 208.003L164.151 208.348ZM171.325 206.642C170.35 206.895 169.48 206.797 168.715 206.348C167.952 205.894 167.445 205.183 167.194 204.216C166.945 203.261 167.041 202.398 167.48 201.627C167.923 200.855 168.608 200.348 169.535 200.107C170.226 199.927 170.878 199.947 171.49 200.168C172.106 200.387 172.608 200.768 172.997 201.311C173.385 201.85 173.61 202.487 173.673 203.222L168.699 204.516C168.919 204.902 169.243 205.182 169.672 205.357C170.102 205.531 170.556 205.555 171.035 205.431C171.787 205.235 172.368 204.796 172.779 204.113L173.787 204.766C173.57 205.211 173.254 205.596 172.84 205.921C172.425 206.247 171.92 206.487 171.325 206.642ZM168.393 203.392L172.151 202.414C171.94 201.962 171.626 201.634 171.211 201.431C170.798 201.222 170.344 201.183 169.849 201.311C169.365 201.437 168.992 201.69 168.728 202.07C168.467 202.445 168.356 202.886 168.393 203.392ZM181.856 206.756L181.157 204.071C180.175 204.263 179.31 204.136 178.562 203.69C177.818 203.24 177.327 202.557 177.089 201.642C176.851 200.727 176.948 199.893 177.379 199.141C177.813 198.384 178.506 197.85 179.458 197.538L178.758 194.847L180.082 194.503L180.782 197.194C181.765 197.002 182.628 197.129 183.371 197.576C184.114 198.023 184.605 198.705 184.844 199.624C185.083 200.543 184.987 201.379 184.556 202.131C184.124 202.883 183.433 203.415 182.482 203.726L183.18 206.411L181.856 206.756ZM178.573 199.771C178.321 200.229 178.268 200.738 178.413 201.297C178.559 201.857 178.854 202.277 179.298 202.558C179.741 202.835 180.261 202.924 180.858 202.824L179.804 198.773C179.234 198.976 178.824 199.309 178.573 199.771ZM182.135 202.492C182.705 202.288 183.114 201.958 183.362 201.501C183.613 201.039 183.665 200.528 183.52 199.969C183.374 199.409 183.08 198.991 182.637 198.714C182.196 198.432 181.678 198.341 181.081 198.441L182.135 202.492ZM188.668 202.059C188.001 202.233 187.415 202.196 186.911 201.947C186.406 201.694 186.077 201.277 185.926 200.693C185.761 200.062 185.862 199.496 186.226 198.996C186.591 198.496 187.157 198.146 187.924 197.946C188.535 197.787 189.176 197.734 189.847 197.785L189.764 197.468C189.657 197.056 189.455 196.789 189.159 196.665C188.862 196.542 188.442 196.551 187.899 196.692C187.311 196.845 186.701 197.171 186.066 197.668L185.4 196.658C185.811 196.333 186.192 196.078 186.545 195.893C186.897 195.703 187.274 195.556 187.678 195.451C188.569 195.219 189.306 195.247 189.888 195.535C190.47 195.819 190.86 196.344 191.06 197.111L192.092 201.079L190.828 201.408L190.608 200.614C190.425 200.96 190.164 201.261 189.825 201.515C189.489 201.765 189.103 201.946 188.668 202.059ZM187.233 200.283C187.304 200.554 187.459 200.742 187.699 200.846C187.944 200.949 188.254 200.951 188.629 200.854C189.153 200.718 189.552 200.464 189.827 200.094C190.102 199.724 190.207 199.317 190.142 198.873C189.454 198.835 188.862 198.88 188.367 199.009C187.927 199.123 187.609 199.291 187.41 199.513C187.215 199.731 187.156 199.987 187.233 200.283ZM193.779 200.64L192.152 194.383L193.464 194.042L194.568 198.285L196.838 193.164L198.067 192.844L199.695 199.101L198.382 199.443L197.277 195.193L195.002 200.322L193.779 200.64ZM192.521 191.426L193.465 190.97C193.592 191.295 193.748 191.517 193.932 191.635C194.121 191.753 194.347 191.777 194.611 191.708C194.878 191.639 195.064 191.507 195.167 191.314C195.274 191.12 195.304 190.85 195.257 190.504L196.303 190.443C196.379 191.046 196.3 191.527 196.065 191.887C195.829 192.243 195.425 192.495 194.854 192.643C194.282 192.792 193.807 192.769 193.428 192.573C193.051 192.372 192.749 191.99 192.521 191.426ZM200.355 197.79C200.63 197.633 200.842 197.495 200.99 197.376C201.138 197.256 201.255 197.115 201.34 196.952C201.426 196.789 201.471 196.611 201.476 196.417C201.48 196.22 201.455 195.966 201.4 195.656L200.785 192.137L205.598 190.885L207.226 197.142L205.901 197.487L204.591 192.452L202.332 193.04L202.762 195.43C202.918 196.311 202.868 197.002 202.61 197.504C202.353 198.007 201.813 198.456 200.99 198.854L200.355 197.79ZM214.505 195.408C213.578 195.649 212.728 195.54 211.956 195.08C211.186 194.614 210.679 193.91 210.433 192.967C210.187 192.02 210.287 191.158 210.733 190.381C211.183 189.603 211.876 189.092 212.811 188.848C213.334 188.712 213.846 188.686 214.345 188.769C214.844 188.849 215.286 189.032 215.672 189.32L215.085 190.381C214.795 190.201 214.481 190.086 214.144 190.037C213.806 189.985 213.477 190 213.158 190.083C212.594 190.229 212.181 190.542 211.917 191.02C211.656 191.493 211.603 192.027 211.758 192.623C211.915 193.226 212.219 193.672 212.669 193.96C213.118 194.244 213.639 194.309 214.23 194.155C214.59 194.062 214.904 193.903 215.175 193.679C215.448 193.45 215.656 193.17 215.801 192.838L216.894 193.424C216.72 193.904 216.424 194.318 216.007 194.666C215.589 195.009 215.088 195.257 214.505 195.408ZM224.235 192.877C223.368 193.103 222.572 193.045 221.848 192.704C221.127 192.359 220.598 191.795 220.262 191.012L218.938 191.356L219.605 193.921L218.281 194.266L216.653 188.009L217.977 187.664L218.618 190.128L219.967 189.777C219.898 188.954 220.095 188.229 220.559 187.601C221.021 186.969 221.678 186.542 222.529 186.32C223.5 186.068 224.373 186.167 225.147 186.618C225.922 187.069 226.434 187.777 226.685 188.74C226.935 189.702 226.832 190.57 226.376 191.341C225.92 192.112 225.206 192.624 224.235 192.877ZM221.556 188.506C221.282 188.978 221.223 189.516 221.38 190.119C221.537 190.723 221.851 191.166 222.321 191.449C222.791 191.728 223.317 191.791 223.9 191.639C224.484 191.488 224.912 191.176 225.186 190.703C225.459 190.227 225.517 189.687 225.36 189.084C225.203 188.481 224.89 188.04 224.421 187.761C223.95 187.478 223.423 187.412 222.84 187.564C222.257 187.716 221.829 188.03 221.556 188.506ZM228.259 193.596L227.47 190.564L228.243 190.363C228.391 190.128 228.479 189.853 228.508 189.538C228.536 189.22 228.502 188.792 228.404 188.254L227.858 185.094L232.676 183.841L233.984 188.869L235.081 188.584L235.87 191.616L234.617 191.942L234.148 190.138L229.042 191.467L229.511 193.271L228.259 193.596ZM229.759 189.994L232.678 189.234L231.682 185.405L229.398 185.999L229.76 188.029C229.909 188.814 229.908 189.469 229.759 189.994ZM238.237 189.164C237.569 189.338 236.984 189.3 236.48 189.052C235.974 188.799 235.646 188.381 235.494 187.798C235.33 187.167 235.43 186.601 235.795 186.101C236.16 185.6 236.726 185.251 237.493 185.051C238.104 184.892 238.745 184.838 239.415 184.89L239.333 184.572C239.226 184.161 239.024 183.893 238.727 183.77C238.431 183.647 238.011 183.656 237.467 183.797C236.88 183.95 236.269 184.275 235.635 184.773L234.969 183.762C235.38 183.438 235.761 183.183 236.114 182.997C236.466 182.808 236.843 182.66 237.247 182.555C238.138 182.324 238.875 182.352 239.457 182.64C240.039 182.923 240.429 183.449 240.629 184.216L241.661 188.184L240.396 188.513L240.177 187.719C239.994 188.065 239.733 188.365 239.394 188.62C239.058 188.869 238.672 189.051 238.237 189.164ZM236.802 187.387C236.872 187.659 237.028 187.847 237.268 187.951C237.512 188.053 237.822 188.056 238.198 187.958C238.721 187.822 239.121 187.569 239.395 187.199C239.67 186.829 239.776 186.422 239.711 185.978C239.023 185.939 238.431 185.984 237.936 186.113C237.496 186.228 237.177 186.396 236.979 186.618C236.784 186.835 236.725 187.092 236.802 187.387ZM246.174 187.01L244.546 180.752L245.859 180.411L246.963 184.654L249.233 179.533L250.462 179.214L252.09 185.471L250.777 185.812L249.672 181.563L247.397 186.691L246.174 187.01ZM252.75 184.16C253.025 184.003 253.236 183.865 253.385 183.745C253.533 183.626 253.649 183.484 253.735 183.321C253.821 183.158 253.866 182.98 253.871 182.787C253.875 182.589 253.85 182.336 253.795 182.026L253.18 178.506L257.993 177.254L259.62 183.511L258.296 183.856L256.986 178.822L254.727 179.409L255.156 181.8C255.313 182.68 255.263 183.372 255.005 183.874C254.747 184.376 254.207 184.826 253.385 185.223L252.75 184.16ZM261.391 183.051L259.764 176.794L261.076 176.452L262.18 180.695L264.45 175.574L265.679 175.255L267.307 181.512L265.994 181.853L264.889 177.604L262.614 182.733L261.391 183.051ZM273.961 179.883C272.91 180.157 271.946 180.068 271.07 179.618L271.518 178.465C272.225 178.771 272.924 178.835 273.616 178.655C274.027 178.548 274.329 178.397 274.521 178.202C274.714 178.006 274.778 177.787 274.715 177.543C274.658 177.324 274.516 177.179 274.289 177.11C274.066 177.04 273.786 177.049 273.451 177.136L272.162 177.472L271.855 176.291L273.096 175.968C273.375 175.895 273.582 175.78 273.716 175.621C273.849 175.463 273.889 175.28 273.835 175.072C273.716 174.612 273.282 174.48 272.535 174.674C271.948 174.827 271.413 175.184 270.932 175.744L270.007 174.967C270.632 174.173 271.402 173.657 272.317 173.419C273.085 173.219 273.709 173.234 274.191 173.463C274.676 173.686 274.985 174.054 275.118 174.565C275.257 175.101 275.137 175.599 274.758 176.06C275.096 176.13 275.379 176.274 275.606 176.492C275.837 176.706 275.994 176.976 276.08 177.304C276.23 177.883 276.113 178.406 275.726 178.874C275.344 179.34 274.756 179.676 273.961 179.883ZM279.702 178.377C279.035 178.55 278.449 178.513 277.945 178.264C277.44 178.012 277.112 177.594 276.96 177.01C276.796 176.379 276.896 175.813 277.261 175.313C277.626 174.813 278.191 174.463 278.959 174.264C279.57 174.105 280.211 174.051 280.881 174.103L280.799 173.785C280.692 173.373 280.49 173.106 280.193 172.983C279.897 172.859 279.477 172.868 278.933 173.01C278.346 173.163 277.735 173.488 277.101 173.985L276.435 172.975C276.845 172.651 277.227 172.396 277.58 172.21C277.931 172.02 278.309 171.873 278.713 171.768C279.604 171.536 280.34 171.564 280.923 171.852C281.504 172.136 281.895 172.662 282.094 173.429L283.127 177.396L281.862 177.725L281.643 176.931C281.46 177.277 281.199 177.578 280.86 177.832C280.524 178.082 280.138 178.263 279.702 178.377ZM278.267 176.6C278.338 176.872 278.494 177.059 278.734 177.163C278.978 177.266 279.288 177.269 279.664 177.171C280.187 177.035 280.586 176.782 280.861 176.411C281.136 176.041 281.241 175.634 281.177 175.19C280.489 175.152 279.897 175.197 279.401 175.326C278.962 175.44 278.643 175.609 278.445 175.831C278.25 176.048 278.191 176.304 278.267 176.6ZM284.814 176.957L283.186 170.7L287.393 169.606L287.712 170.828L284.829 171.578L286.138 176.613L284.814 176.957ZM295.626 173.319C295.206 174.085 294.549 174.585 293.654 174.817C292.759 175.05 291.946 174.925 291.214 174.441L292.156 178.061L290.831 178.406L288.469 169.326L289.77 168.988L289.987 169.821C290.396 169.015 291.049 168.495 291.948 168.261C292.843 168.028 293.661 168.144 294.4 168.608C295.144 169.072 295.639 169.781 295.888 170.736C296.136 171.691 296.049 172.552 295.626 173.319ZM290.761 170.509C290.488 170.985 290.429 171.521 290.584 172.116C290.739 172.711 291.052 173.152 291.523 173.439C291.998 173.721 292.524 173.787 293.104 173.636C293.687 173.484 294.114 173.173 294.384 172.702C294.656 172.225 294.714 171.686 294.557 171.082C294.4 170.479 294.087 170.038 293.618 169.759C293.152 169.475 292.627 169.409 292.043 169.561C291.464 169.711 291.037 170.027 290.761 170.509ZM299.298 176.254C298.906 176.356 298.512 176.384 298.116 176.338L298.162 175.11C298.388 175.128 298.631 175.103 298.891 175.036C299.187 174.959 299.403 174.83 299.539 174.649C299.677 174.473 299.766 174.183 299.806 173.78L299.847 173.373L295.365 167.532L296.815 167.155L299.077 170.169L300.044 171.472L300.18 169.882L300.507 166.194L301.916 165.828L301.13 173.877C301.003 175.177 300.392 175.97 299.298 176.254ZM306.502 171.418C305.451 171.691 304.488 171.602 303.611 171.152L304.06 169.999C304.767 170.306 305.466 170.369 306.157 170.189C306.568 170.082 306.87 169.931 307.063 169.736C307.255 169.541 307.32 169.321 307.256 169.078C307.199 168.858 307.057 168.714 306.83 168.645C306.607 168.575 306.328 168.583 305.992 168.671L304.704 169.006L304.397 167.825L305.637 167.502C305.917 167.43 306.124 167.314 306.257 167.156C306.391 166.997 306.431 166.814 306.377 166.606C306.257 166.147 305.824 166.014 305.077 166.208C304.489 166.361 303.955 166.718 303.474 167.278L302.548 166.501C303.174 165.707 303.944 165.191 304.859 164.953C305.626 164.754 306.25 164.768 306.732 164.997C307.217 165.221 307.526 165.588 307.659 166.1C307.798 166.635 307.678 167.133 307.299 167.595C307.637 167.665 307.92 167.809 308.148 168.027C308.378 168.24 308.536 168.51 308.621 168.838C308.772 169.417 308.654 169.941 308.268 170.408C307.886 170.874 307.297 171.211 306.502 171.418ZM310.442 170.29L308.814 164.033L310.127 163.692L311.231 167.935L313.501 162.814L314.73 162.494L316.357 168.751L315.045 169.093L313.939 164.843L311.665 169.972L310.442 170.29ZM319.621 167.902L318.311 162.868L316.148 163.431L315.829 162.208L321.451 160.746L321.769 161.968L319.636 162.523L320.945 167.558L319.621 167.902ZM326.795 166.196C325.82 166.45 324.95 166.352 324.185 165.902C323.422 165.448 322.915 164.737 322.664 163.77C322.415 162.815 322.511 161.952 322.95 161.181C323.393 160.409 324.078 159.902 325.005 159.661C325.697 159.481 326.348 159.501 326.96 159.722C327.576 159.941 328.078 160.323 328.467 160.866C328.855 161.405 329.08 162.041 329.143 162.776L324.169 164.07C324.389 164.456 324.713 164.737 325.142 164.911C325.572 165.085 326.026 165.11 326.506 164.985C327.257 164.79 327.838 164.35 328.249 163.668L329.257 164.32C329.04 164.765 328.724 165.15 328.31 165.475C327.895 165.801 327.39 166.041 326.795 166.196ZM323.864 162.946L327.621 161.969C327.41 161.516 327.096 161.188 326.681 160.985C326.268 160.776 325.814 160.737 325.319 160.866C324.835 160.991 324.462 161.244 324.198 161.624C323.937 161.999 323.826 162.44 323.864 162.946Z" fill="black"/>
<path d="M271.509 182.709L290.044 177.888L290.203 178.499L271.668 183.321L271.509 182.709ZM292.59 177.225L297.371 175.982L297.53 176.593L292.749 177.837L292.59 177.225ZM301.406 174.932L330.856 167.27L331.015 167.882L301.565 175.543L301.406 174.932Z" fill="black"/>
<path opacity="0.5" d="M162.368 229.679L160.411 222.159L163.495 221.357C164.155 221.185 164.742 221.237 165.255 221.515C165.77 221.788 166.107 222.23 166.266 222.842C166.438 223.502 166.319 224.092 165.909 224.609C166.27 224.709 166.582 224.893 166.842 225.161C167.104 225.425 167.286 225.751 167.387 226.139C167.546 226.751 167.46 227.309 167.129 227.813C166.797 228.318 166.292 228.658 165.614 228.835L162.368 229.679ZM163.27 228.263L165.216 227.757C165.59 227.659 165.86 227.485 166.026 227.232C166.194 226.976 166.234 226.68 166.147 226.344C166.06 226.008 165.881 225.771 165.609 225.633C165.341 225.49 165.019 225.467 164.645 225.565L162.7 226.071L163.27 228.263ZM162.427 225.022L164.257 224.546C164.593 224.458 164.834 224.295 164.981 224.055C165.127 223.816 165.16 223.54 165.079 223.229C164.998 222.918 164.835 222.693 164.59 222.555C164.346 222.418 164.055 222.392 163.72 222.48L161.889 222.956L162.427 225.022ZM169.172 227.909L167.748 222.434L168.896 222.135L169.862 225.848L171.849 221.367L172.924 221.087L174.348 226.562L173.199 226.861L172.232 223.143L170.242 227.631L169.172 227.909ZM175.69 227.899L174.999 225.245L175.676 225.069C175.805 224.864 175.883 224.623 175.908 224.348C175.933 224.069 175.902 223.694 175.817 223.224L175.339 220.459L179.555 219.362L180.7 223.762L181.659 223.512L182.35 226.166L181.254 226.451L180.843 224.873L176.375 226.035L176.786 227.613L175.69 227.899ZM177.003 224.746L179.557 224.082L178.685 220.731L176.687 221.251L177.003 223.027C177.133 223.714 177.133 224.287 177.003 224.746ZM185.253 223.865C184.4 224.087 183.639 224.002 182.969 223.608C182.302 223.211 181.859 222.589 181.639 221.743C181.421 220.907 181.505 220.152 181.889 219.477C182.277 218.802 182.876 218.358 183.687 218.147C184.292 217.99 184.862 218.008 185.398 218.201C185.937 218.393 186.376 218.726 186.716 219.201C187.056 219.673 187.253 220.23 187.308 220.873L182.955 222.005C183.148 222.343 183.432 222.588 183.807 222.741C184.183 222.893 184.581 222.915 185 222.806C185.657 222.635 186.166 222.25 186.526 221.653L187.408 222.224C187.218 222.613 186.941 222.95 186.579 223.235C186.216 223.52 185.774 223.73 185.253 223.865ZM182.688 221.022L185.977 220.166C185.791 219.77 185.517 219.483 185.153 219.306C184.792 219.123 184.395 219.088 183.962 219.201C183.539 219.311 183.212 219.533 182.981 219.865C182.753 220.193 182.655 220.579 182.688 221.022ZM193.517 220.859C193.114 221.535 192.484 221.984 191.628 222.207C190.771 222.43 190.002 222.344 189.321 221.95C188.64 221.556 188.19 220.938 187.971 220.096C187.752 219.253 187.844 218.494 188.246 217.818C188.649 217.142 189.279 216.693 190.135 216.47C190.992 216.247 191.761 216.332 192.442 216.726C193.123 217.12 193.573 217.739 193.792 218.581C194.011 219.424 193.919 220.183 193.517 220.859ZM189.283 218.382C189.044 218.796 188.993 219.266 189.13 219.794C189.267 220.322 189.542 220.71 189.953 220.957C190.367 221.2 190.831 221.255 191.345 221.121C191.859 220.988 192.236 220.714 192.476 220.301C192.718 219.883 192.77 219.411 192.633 218.883C192.496 218.355 192.22 217.969 191.806 217.726C191.394 217.479 190.932 217.422 190.418 217.555C189.904 217.689 189.526 217.965 189.283 218.382ZM198.023 220.403L196.599 214.928L199.216 214.247C199.779 214.101 200.266 214.114 200.676 214.287C201.086 214.457 201.347 214.757 201.459 215.187C201.524 215.435 201.526 215.679 201.465 215.919C201.407 216.158 201.295 216.37 201.126 216.556C201.405 216.606 201.648 216.73 201.855 216.926C202.066 217.117 202.208 217.357 202.283 217.643C202.402 218.101 202.319 218.52 202.033 218.901C201.751 219.28 201.324 219.545 200.75 219.694L198.023 220.403ZM198.929 219.171L200.486 218.766C200.752 218.697 200.937 218.583 201.042 218.425C201.15 218.267 201.174 218.074 201.115 217.846C201.056 217.619 200.941 217.462 200.769 217.376C200.6 217.286 200.382 217.275 200.117 217.345L198.559 217.75L198.929 219.171ZM198.329 216.863L199.776 216.487C200.021 216.423 200.193 216.317 200.292 216.168C200.391 216.019 200.414 215.841 200.361 215.635C200.307 215.429 200.2 215.285 200.041 215.203C199.882 215.121 199.68 215.112 199.435 215.176L197.988 215.552L198.329 216.863ZM209.254 214.911L206.199 212.442L207.62 217.906L206.419 218.219L204.463 210.699L205.538 210.419L209.206 213.412L210.95 209.011L212.025 208.731L213.981 216.252L212.775 216.565L211.354 211.101L209.894 214.745L209.254 214.911ZM215.699 215.805L213.743 208.285L216.48 207.572C217.27 207.367 217.967 207.436 218.572 207.779C219.176 208.122 219.578 208.678 219.778 209.447C219.979 210.216 219.898 210.897 219.538 211.491C219.176 212.082 218.6 212.48 217.81 212.686L216.274 213.085L216.9 215.492L215.699 215.805ZM215.97 211.96L217.433 211.58C217.898 211.459 218.234 211.235 218.44 210.909C218.645 210.58 218.691 210.196 218.578 209.759C218.463 209.319 218.236 209.006 217.897 208.822C217.557 208.634 217.155 208.601 216.69 208.722L215.226 209.102L215.97 211.96ZM225.246 213.321L224.87 211.874L220.926 212.9L220.638 211.793L223.374 205.779L224.47 205.494L225.755 210.434L226.646 210.202L226.941 211.335L226.05 211.567L226.426 213.014L225.246 213.321ZM222.091 211.415L224.603 210.762L223.801 207.678L222.091 211.415ZM234.002 213.68L233.391 211.331C232.531 211.499 231.774 211.388 231.12 210.998C230.469 210.604 230.039 210.006 229.831 209.206C229.623 208.405 229.707 207.676 230.085 207.018C230.465 206.355 231.071 205.887 231.903 205.615L231.291 203.26L232.45 202.959L233.062 205.313C233.922 205.146 234.677 205.257 235.327 205.648C235.978 206.039 236.408 206.636 236.617 207.44C236.826 208.244 236.742 208.975 236.364 209.634C235.987 210.292 235.382 210.757 234.549 211.03L235.161 213.379L234.002 213.68ZM231.13 207.569C230.909 207.97 230.862 208.415 230.99 208.904C231.117 209.394 231.375 209.761 231.764 210.007C232.152 210.25 232.607 210.327 233.129 210.24L232.207 206.695C231.708 206.873 231.349 207.165 231.13 207.569ZM234.246 209.949C234.745 209.771 235.102 209.482 235.319 209.082C235.539 208.678 235.585 208.231 235.458 207.742C235.331 207.252 235.073 206.886 234.685 206.644C234.3 206.397 233.846 206.317 233.324 206.404L234.246 209.949ZM242.999 207.986C242.596 208.662 241.967 209.111 241.11 209.334C240.254 209.557 239.485 209.471 238.804 209.077C238.123 208.683 237.673 208.065 237.453 207.223C237.234 206.38 237.326 205.621 237.729 204.945C238.131 204.269 238.761 203.82 239.618 203.597C240.474 203.374 241.243 203.46 241.924 203.854C242.605 204.247 243.055 204.866 243.274 205.708C243.494 206.551 243.402 207.31 242.999 207.986ZM238.766 205.509C238.526 205.923 238.475 206.393 238.612 206.921C238.75 207.449 239.024 207.837 239.436 208.084C239.85 208.327 240.314 208.382 240.828 208.248C241.342 208.115 241.718 207.841 241.958 207.428C242.2 207.01 242.253 206.538 242.115 206.01C241.978 205.482 241.702 205.096 241.288 204.853C240.877 204.606 240.414 204.549 239.9 204.682C239.386 204.816 239.008 205.092 238.766 205.509ZM250.017 206.155C249.65 206.825 249.075 207.262 248.292 207.466C247.509 207.669 246.797 207.56 246.157 207.136L246.981 210.304L245.822 210.605L243.755 202.66L244.893 202.364L245.083 203.093C245.441 202.388 246.013 201.933 246.8 201.728C247.583 201.525 248.298 201.626 248.945 202.033C249.595 202.438 250.029 203.059 250.247 203.894C250.464 204.73 250.387 205.483 250.017 206.155ZM245.76 203.695C245.522 204.112 245.47 204.581 245.606 205.102C245.741 205.623 246.015 206.009 246.427 206.26C246.843 206.506 247.304 206.564 247.81 206.432C248.321 206.299 248.694 206.027 248.93 205.614C249.169 205.198 249.22 204.725 249.082 204.197C248.945 203.669 248.671 203.283 248.26 203.039C247.852 202.791 247.393 202.733 246.883 202.866C246.376 202.998 246.002 203.274 245.76 203.695ZM254.524 204.075L252.333 202.305L253.3 206.023L252.152 206.321L250.728 200.847L251.797 200.568L254.483 202.736L255.762 199.537L256.837 199.257L258.261 204.732L257.113 205.031L256.146 201.313L255.106 203.924L254.524 204.075ZM261.383 203.999C260.799 204.15 260.286 204.118 259.845 203.9C259.403 203.679 259.116 203.313 258.983 202.803C258.839 202.251 258.927 201.756 259.246 201.318C259.565 200.88 260.061 200.574 260.732 200.4C261.267 200.26 261.827 200.214 262.414 200.259L262.342 199.981C262.248 199.621 262.071 199.387 261.812 199.279C261.552 199.171 261.185 199.179 260.71 199.302C260.196 199.436 259.661 199.721 259.106 200.156L258.524 199.272C258.883 198.988 259.217 198.765 259.525 198.603C259.833 198.437 260.163 198.308 260.516 198.216C261.296 198.013 261.941 198.038 262.451 198.29C262.959 198.538 263.301 198.998 263.476 199.669L264.379 203.141L263.272 203.429L263.08 202.734C262.92 203.037 262.692 203.3 262.395 203.522C262.101 203.741 261.764 203.899 261.383 203.999ZM260.127 202.444C260.189 202.682 260.325 202.846 260.535 202.937C260.749 203.027 261.02 203.029 261.349 202.943C261.807 202.824 262.156 202.603 262.397 202.279C262.637 201.955 262.729 201.599 262.673 201.21C262.071 201.177 261.553 201.216 261.119 201.329C260.735 201.429 260.456 201.576 260.282 201.771C260.111 201.961 260.06 202.185 260.127 202.444ZM266.841 202.5L265.695 198.095L263.802 198.587L263.524 197.518L268.443 196.238L268.721 197.308L266.854 197.793L268 202.199L266.841 202.5ZM273.118 201.007C272.265 201.229 271.504 201.143 270.834 200.75C270.167 200.353 269.724 199.731 269.504 198.885C269.286 198.049 269.37 197.294 269.754 196.619C270.142 195.943 270.741 195.5 271.553 195.289C272.157 195.132 272.727 195.149 273.263 195.342C273.802 195.534 274.241 195.868 274.581 196.343C274.921 196.815 275.118 197.372 275.173 198.014L270.82 199.147C271.013 199.485 271.297 199.73 271.673 199.883C272.048 200.035 272.446 200.057 272.865 199.947C273.522 199.776 274.031 199.392 274.391 198.795L275.273 199.366C275.083 199.755 274.806 200.092 274.444 200.377C274.081 200.661 273.639 200.871 273.118 201.007ZM270.553 198.164L273.842 197.308C273.656 196.912 273.382 196.625 273.018 196.447C272.658 196.265 272.26 196.23 271.827 196.343C271.404 196.453 271.077 196.674 270.846 197.007C270.618 197.335 270.52 197.721 270.553 198.164Z" fill="black"/>
<defs>
<clipPath id="clip0_42_1026">
<rect width="38.0487" height="38.0487" fill="white" transform="translate(179.449 138.515) rotate(-14.5823)"/>
</clipPath>
</defs>
</svg>
