<svg width="184" height="250" viewBox="0 0 184 250" fill="none" xmlns="http://www.w3.org/2000/svg">
<rect y="79.3811" width="315.291" height="206.737" rx="16.5943" transform="rotate(-14.5823 0 79.3811)" fill="#F1F1F1"/>
<rect x="0.421618" y="79.6286" width="314.599" height="206.045" rx="16.2485" transform="rotate(-14.5823 0.421618 79.6286)" stroke="black" stroke-opacity="0.1" stroke-width="0.691427"/>
<path d="M20.5134 97.2092C19.1586 97.5617 17.8298 97.4515 16.5273 96.8787L17.1389 95.2335C18.0675 95.6385 19.0089 95.7169 19.9629 95.4686C20.5423 95.3179 20.9519 95.1044 21.1917 94.828C21.4358 94.5506 21.5091 94.2245 21.4116 93.8499C21.3198 93.497 21.1199 93.256 20.8119 93.1268C20.5027 92.9933 20.1194 92.986 19.662 93.105L17.7865 93.5929L17.3547 91.9331L19.093 91.4809C19.4937 91.3766 19.7819 91.197 19.9574 90.942C20.1373 90.6859 20.1831 90.388 20.0947 90.0481C20.0086 89.7171 19.8061 89.493 19.4872 89.3759C19.1728 89.2577 18.7737 89.2615 18.2902 89.3873C17.445 89.6072 16.7243 90.1087 16.128 90.8917L14.8106 89.7972C15.6047 88.6836 16.6508 87.9579 17.949 87.6202C18.9946 87.3482 19.8709 87.3644 20.5781 87.6688C21.2852 87.9733 21.7402 88.5154 21.9431 89.2952C22.1686 90.1621 21.9993 90.9597 21.4352 91.6878C21.9321 91.8098 22.3524 92.0399 22.6963 92.3784C23.0445 92.7157 23.281 93.124 23.4057 93.6032C23.6165 94.4135 23.4738 95.1437 22.9778 95.7937C22.4806 96.4393 21.6592 96.9112 20.5134 97.2092ZM27.3584 95.4006C26.6396 95.5876 26.0092 95.5423 25.4672 95.2647C24.9295 94.9859 24.5774 94.5263 24.4108 93.8859C24.226 93.1758 24.3412 92.5458 24.7563 91.996C25.1715 91.4461 25.8277 91.0544 26.7252 90.821C27.3481 90.6589 27.966 90.5935 28.5788 90.6248L28.5159 90.383C28.4117 89.9822 28.2094 89.7232 27.9091 89.606C27.6088 89.4887 27.1842 89.5015 26.6353 89.6443C26.0124 89.8064 25.3421 90.1621 24.6245 90.7116L23.7888 89.4569C24.246 89.0868 24.6794 88.795 25.089 88.5814C25.4986 88.3679 25.9582 88.1948 26.4679 88.0622C27.4656 87.8027 28.2951 87.8357 28.9566 88.1613C29.6181 88.4869 30.061 89.081 30.2854 89.9436L31.4057 94.25L29.7198 94.6886L29.4743 93.8524C29.2671 94.218 28.9759 94.5379 28.6007 94.8123C28.2299 95.0855 27.8158 95.2816 27.3584 95.4006ZM26.2019 93.3153C26.2711 93.5811 26.4158 93.762 26.6362 93.8582C26.8609 93.9532 27.1497 93.9548 27.5026 93.863C27.9992 93.7338 28.3801 93.4905 28.6453 93.1332C28.9094 92.7714 29.0098 92.3709 28.9467 91.9315C28.2903 91.9115 27.7443 91.9582 27.3086 92.0716C26.873 92.1849 26.5601 92.35 26.37 92.5669C26.1832 92.7783 26.1271 93.0278 26.2019 93.3153ZM33.0363 93.8258L31.2495 86.9578L36.0983 85.6964L36.5403 87.3954L33.567 88.1689L34.9117 93.3379L33.0363 93.8258ZM43.1587 91.3669C42.2046 91.6151 41.3496 91.4933 40.5938 91.0015L41.6036 94.8832L39.7281 95.3711L37.1407 85.4252L38.9116 84.9645L39.1729 85.9152C39.373 85.4864 39.6528 85.1229 40.0125 84.8246C40.3753 84.5209 40.8007 84.3056 41.2887 84.1787C42.2471 83.9293 43.1229 84.0597 43.916 84.5696C44.7092 85.0796 45.2423 85.8595 45.5155 86.9094C45.7897 87.9637 45.7054 88.9089 45.2624 89.7451C44.8184 90.5769 44.1171 91.1175 43.1587 91.3669ZM39.8825 88.3748C40.0321 88.9499 40.331 89.3745 40.7791 89.6486C41.2304 89.9173 41.7305 89.9802 42.2794 89.8374C42.837 89.6924 43.243 89.3937 43.4975 88.9414C43.7519 88.4892 43.8038 87.9733 43.6531 87.3939C43.5035 86.8189 43.2079 86.3981 42.7665 86.1315C42.3239 85.8606 41.8238 85.7977 41.2662 85.9427C40.7173 86.0855 40.3118 86.3864 40.0498 86.8452C39.7909 87.2986 39.7352 87.8085 39.8825 88.3748ZM49.2435 92.9654C48.7817 93.0855 48.3218 93.1238 47.864 93.0801L47.8398 91.4049C48.0867 91.4244 48.3518 91.3973 48.635 91.3236C48.9573 91.2398 49.1989 91.0955 49.3596 90.8909C49.5258 90.6895 49.6289 90.3883 49.6687 89.9872L49.6952 89.8478L44.7832 83.437L46.8286 82.9049L48.9829 85.9027L49.9262 87.276L50.0088 85.6358L50.2658 82.0107L52.2654 81.4905L51.4303 90.2685C51.2794 91.7264 50.5504 92.6254 49.2435 92.9654ZM57.2719 87.6604C56.0565 87.9766 54.9688 87.8991 54.009 87.4278L54.5176 85.9769C55.2662 86.2798 56.013 86.3344 56.758 86.1406C57.1762 86.0318 57.4783 85.888 57.6644 85.7094C57.8549 85.5296 57.9201 85.3243 57.86 85.0934C57.8067 84.8886 57.6723 84.7562 57.4566 84.696C57.2398 84.6314 56.9659 84.6422 56.6348 84.7284L55.2429 85.0905L54.8672 83.6463L56.1545 83.3114C56.4464 83.2355 56.6588 83.1221 56.7916 82.9712C56.9245 82.8204 56.966 82.6491 56.9161 82.4574C56.8039 82.0262 56.3819 81.9057 55.65 82.0961C54.9965 82.2661 54.4176 82.6423 53.9133 83.2247L52.8112 82.2067C53.5074 81.3605 54.3935 80.7974 55.4695 80.5174C56.3408 80.2908 57.0571 80.2998 57.6185 80.5444C58.1787 80.7848 58.5313 81.1837 58.6764 81.7414C58.8305 82.3338 58.6857 82.8948 58.242 83.4242C58.6215 83.4882 58.9418 83.6375 59.2028 83.8719C59.4626 84.102 59.639 84.3957 59.7319 84.7529C59.9019 85.4064 59.7667 85.9951 59.3262 86.519C58.8846 87.0385 58.1999 87.419 57.2719 87.6604ZM61.502 86.4204L59.7153 79.5524L61.5646 79.0713L62.6441 83.2209L64.8319 78.2213L66.4656 77.7963L68.2523 84.6643L66.4161 85.142L65.3332 80.9794L63.1357 85.9954L61.502 86.4204ZM71.6015 83.793L70.2568 78.624L67.9827 79.2157L67.5407 77.5166L73.9643 75.8455L74.4063 77.5445L72.1323 78.1361L73.477 83.3051L71.6015 83.793ZM79.9303 81.8146C78.7976 82.1093 77.801 82.0151 76.9404 81.532C76.083 81.0434 75.5149 80.2632 75.2361 79.1915C74.9607 78.1329 75.0706 77.1787 75.5659 76.3289C76.0611 75.4791 76.838 74.9165 77.8966 74.6411C78.6764 74.4383 79.4065 74.4553 80.0868 74.6923C80.7714 74.9282 81.3289 75.3459 81.7594 75.9456C82.1898 76.5453 82.4434 77.2607 82.5201 78.092L77.2596 79.4605C77.4815 79.8307 77.805 80.0907 78.2301 80.2406C78.6583 80.385 79.1295 80.3904 79.6436 80.2566C80.4364 80.0503 81.0694 79.6136 81.5423 78.9464L82.6964 79.9229C82.0896 80.8622 81.1675 81.4928 79.9303 81.8146ZM76.9032 78.1439L80.4907 77.2106C80.2747 76.7737 79.9715 76.4572 79.5809 76.2612C79.1947 76.0639 78.7685 76.026 78.3024 76.1472C77.845 76.2662 77.4892 76.5076 77.235 76.8715C76.9808 77.2353 76.8702 77.6594 76.9032 78.1439ZM90.5625 79.0486C89.5126 79.3218 88.56 79.2091 87.7047 78.7107C86.8483 78.2079 86.283 77.4293 86.0087 76.3751C85.7367 75.3295 85.8505 74.3813 86.3501 73.5303C86.8529 72.6739 87.6358 72.1075 88.6988 71.8309C89.2825 71.6791 89.8505 71.6453 90.4027 71.7295C90.9537 71.8094 91.4452 72.0002 91.8772 72.3018L91.1115 73.7568C90.8336 73.5826 90.5257 73.472 90.1879 73.425C89.8533 73.3725 89.527 73.3876 89.209 73.4703C88.6688 73.6109 88.2715 73.9073 88.017 74.3595C87.7669 74.8107 87.7161 75.3216 87.8646 75.8923C88.0153 76.4717 88.3076 76.898 88.7415 77.1712C89.1753 77.4443 89.6733 77.5078 90.2353 77.3616C90.5925 77.2687 90.9087 77.1074 91.1838 76.8777C91.4589 76.6479 91.6675 76.3681 91.8096 76.0381L93.2356 76.8532C93.0105 77.4001 92.6677 77.8614 92.2072 78.237C91.7512 78.6115 91.2029 78.882 90.5625 79.0486ZM94.5781 77.8156L92.7914 70.9476L96.4051 70.0075C97.0934 69.8285 97.6864 69.8463 98.1841 70.061C98.6819 70.2757 99.0004 70.651 99.1398 71.1868C99.2214 71.5005 99.2227 71.8095 99.1438 72.1137C99.0691 72.4169 98.9221 72.6831 98.7026 72.9123C99.0624 72.9721 99.3767 73.1253 99.6454 73.3717C99.9142 73.618 100.097 73.9264 100.193 74.2967C100.343 74.8717 100.244 75.3951 99.8969 75.8668C99.553 76.333 99.026 76.6585 98.3159 76.8432L94.5781 77.8156ZM96.0368 76.0477L97.6705 75.6227C97.9667 75.5456 98.1735 75.4197 98.2909 75.245C98.4126 75.0692 98.4405 74.8549 98.3748 74.6022C98.2377 74.0751 97.8663 73.8903 97.2608 74.0478L95.6271 74.4728L96.0368 76.0477ZM95.3058 73.2378L96.8153 72.8451C97.0941 72.7725 97.289 72.6544 97.3999 72.4907C97.514 72.3214 97.541 72.1214 97.481 71.8905C97.4198 71.6552 97.2987 71.4937 97.1177 71.4059C96.9399 71.3126 96.7116 71.3022 96.4328 71.3748L94.9233 71.7675L95.3058 73.2378ZM107.705 73.5216C107.185 74.3684 106.37 74.9362 105.259 75.2253C104.148 75.5143 103.158 75.4162 102.287 74.9309C101.416 74.4414 100.841 73.6608 100.562 72.5891C100.285 71.5261 100.409 70.5707 100.932 69.7228C101.455 68.8706 102.272 68.2999 103.383 68.0109C104.493 67.7219 105.482 67.8206 106.348 68.3069C107.218 68.7921 107.792 69.5684 108.07 70.6357C108.349 71.7074 108.227 72.6694 107.705 73.5216ZM102.581 70.5636C102.321 71.0126 102.267 71.5268 102.418 72.1063C102.568 72.6857 102.867 73.1103 103.314 73.3801C103.765 73.6487 104.27 73.7105 104.828 73.5654C105.385 73.4204 105.793 73.1211 106.052 72.6678C106.315 72.2132 106.372 71.6963 106.221 71.1169C106.07 70.5374 105.77 70.1156 105.319 69.8513C104.874 69.5859 104.372 69.5257 103.814 69.6707C103.257 69.8158 102.846 70.1134 102.581 70.5636ZM113.66 73.0399C112.527 73.3345 111.531 73.2403 110.67 72.7572C109.813 72.2686 109.244 71.4884 108.966 70.4167C108.69 69.3581 108.8 68.4039 109.295 67.5541C109.791 66.7043 110.568 66.1417 111.626 65.8663C112.406 65.6635 113.136 65.6805 113.816 65.9175C114.501 66.1534 115.058 66.5711 115.489 67.1708C115.919 67.7705 116.173 68.4859 116.25 69.3172L110.989 70.6857C111.211 71.0559 111.535 71.3159 111.96 71.4658C112.388 71.6102 112.859 71.6156 113.373 71.4818C114.166 71.2756 114.799 70.8388 115.272 70.1716L116.426 71.1481C115.819 72.0874 114.897 72.718 113.66 73.0399ZM110.633 69.3691L114.22 68.4358C114.004 67.9989 113.701 67.6824 113.31 67.4864C112.924 67.2892 112.498 67.2512 112.032 67.3724C111.575 67.4914 111.219 67.7329 110.965 68.0967C110.71 68.4605 110.6 68.8846 110.633 69.3691ZM121.24 70.8794L119.453 64.0114L123.067 63.0713C123.756 62.8923 124.349 62.9101 124.846 63.1248C125.344 63.3395 125.663 63.7148 125.802 64.2506C125.884 64.5643 125.885 64.8733 125.806 65.1776C125.731 65.4807 125.584 65.7469 125.365 65.9761C125.725 66.036 126.039 66.1891 126.308 66.4355C126.576 66.6818 126.759 66.9902 126.855 67.3605C127.005 67.9355 126.906 68.4589 126.559 68.9306C126.215 69.3968 125.688 69.7223 124.978 69.907L121.24 70.8794ZM122.699 69.1115L124.333 68.6865C124.629 68.6094 124.836 68.4836 124.953 68.3088C125.075 68.133 125.103 67.9187 125.037 67.666C124.9 67.1389 124.528 66.9541 123.923 67.1116L122.289 67.5367L122.699 69.1115ZM121.968 66.3016L123.477 65.9089C123.756 65.8364 123.951 65.7182 124.062 65.5545C124.176 65.3853 124.203 65.1852 124.143 64.9543C124.082 64.7191 123.961 64.5575 123.78 64.4697C123.602 64.3764 123.374 64.366 123.095 64.4386L121.585 64.8313L121.968 66.3016ZM128.608 68.9626L126.822 62.0946L128.671 61.6135L129.75 65.7631L131.938 60.7635L133.572 60.3385L135.359 67.2065L133.522 67.6842L132.439 63.5216L130.242 68.5376L128.608 68.9626ZM136.903 68.8909L135.952 65.238L136.822 65.0119C136.961 64.7802 137.044 64.5075 137.069 64.194C137.099 63.8792 137.071 63.4657 136.984 62.9534L136.385 59.6066L142.038 58.1361L143.382 63.3051L144.572 62.9957L145.522 66.6486L143.797 67.0974L143.289 65.1435L138.146 66.4814L138.654 68.4353L136.903 68.8909ZM138.877 64.519L141.569 63.8186L140.636 60.231L138.519 60.7819L138.849 62.6424C138.972 63.3641 138.981 63.9896 138.877 64.519ZM149.271 63.7755C148.139 64.0701 147.142 63.9759 146.281 63.4928C145.424 63.0042 144.856 62.224 144.577 61.1523C144.302 60.0937 144.412 59.1395 144.907 58.2897C145.402 57.4399 146.179 56.8773 147.238 56.6019C148.018 56.3991 148.748 56.4161 149.428 56.6531C150.113 56.889 150.67 57.3067 151.1 57.9064C151.531 58.5061 151.784 59.2215 151.861 60.0528L146.601 61.4213C146.823 61.7915 147.146 62.0515 147.571 62.2014C147.999 62.3458 148.471 62.3512 148.985 62.2174C149.778 62.0112 150.41 61.5744 150.883 60.9072L152.038 61.8837C151.431 62.823 150.509 63.4536 149.271 63.7755ZM146.244 60.1047L149.832 59.1714C149.616 58.7345 149.313 58.4181 148.922 58.222C148.536 58.0248 148.11 57.9868 147.644 58.1081C147.186 58.2271 146.83 58.4685 146.576 58.8323C146.322 59.1961 146.211 59.6202 146.244 60.1047ZM159.699 59.9952C159.18 60.842 158.365 61.4099 157.254 61.6989C156.143 61.9879 155.152 61.8898 154.282 61.4045C153.41 60.915 152.835 60.1344 152.556 59.0627C152.28 57.9997 152.403 57.0443 152.927 56.1964C153.449 55.3442 154.266 54.7735 155.377 54.4845C156.488 54.1955 157.476 54.2942 158.342 54.7805C159.213 55.2657 159.787 56.042 160.065 57.1094C160.343 58.181 160.221 59.143 159.699 59.9952ZM154.576 57.0372C154.316 57.4862 154.261 58.0005 154.412 58.5799C154.563 59.1593 154.862 59.5839 155.308 59.8537C155.76 60.1223 156.264 60.1841 156.822 60.039C157.38 59.894 157.788 59.5947 158.047 59.1414C158.31 58.6868 158.366 58.1699 158.215 57.5905C158.064 57.011 157.764 56.5892 157.314 56.3249C156.868 56.0595 156.366 55.9993 155.809 56.1444C155.251 56.2894 154.84 56.587 154.576 57.0372Z" fill="black"/>
<rect x="19.4839" y="108.963" width="292.474" height="161.794" rx="5.18571" transform="rotate(-14.5823 19.4839 108.963)" stroke="black" stroke-opacity="0.25" stroke-width="0.691427" stroke-dasharray="6.91 6.91"/>
<g clip-path="url(#clip0_72_462)">
<path d="M186.831 132.948L185.667 128.473C185.382 127.378 185.24 126.831 184.908 126.391C184.577 125.952 184.089 125.665 183.113 125.094L175.125 120.4C174.283 119.906 173.863 119.66 173.397 119.569C173.3 119.55 173.203 119.537 173.105 119.528C172.633 119.488 172.16 119.611 171.217 119.856C166.874 120.986 164.702 121.551 163.54 123.12C163.305 123.437 163.105 123.778 162.943 124.138C162.14 125.919 162.705 128.091 163.836 132.436L165.418 138.519C166.732 143.568 167.389 146.094 169.365 147.254C170.956 148.188 172.9 147.945 176.232 147.13M173.457 119.988L173.631 120.657C174.617 124.445 175.109 126.338 176.592 127.209C178.073 128.079 179.967 127.587 183.751 126.602L184.42 126.428" stroke="#B90028" stroke-width="1.38285" stroke-linecap="round" stroke-linejoin="round"/>
<path d="M187.406 140.651L189.675 141.436C190.751 141.81 191.288 141.996 191.591 141.715C191.896 141.433 191.753 140.883 191.466 139.782L191.027 138.094C190.741 136.993 190.598 136.443 190.195 136.344C189.793 136.249 189.414 136.672 188.658 137.522L187.057 139.312M187.406 140.651L187.057 139.312M187.406 140.651C187.731 141.902 187.894 142.527 187.746 143.063C187.649 143.414 187.462 143.733 187.202 143.989C186.807 144.379 186.182 144.541 184.93 144.867L184.261 145.041C182.369 145.533 181.423 145.779 180.682 145.343C179.941 144.91 179.694 143.964 179.202 142.071C178.709 140.177 178.463 139.232 178.899 138.491C179.332 137.75 180.278 137.504 182.172 137.011L182.841 136.837C184.093 136.512 184.718 136.349 185.253 136.497C185.604 136.594 185.924 136.781 186.179 137.04C186.569 137.436 186.732 138.061 187.057 139.312" stroke="#B90028" stroke-width="1.38285" stroke-linejoin="round"/>
</g>
<path d="M91.2576 194.892L89.6066 188.545L85.9105 189.507L87.5616 195.853L86.3644 196.165L84.4142 188.668L90.5045 187.084L92.4548 194.58L91.2576 194.892ZM96.6267 193.635C95.7763 193.856 95.0173 193.771 94.3497 193.379C93.6847 192.982 93.2425 192.362 93.0231 191.519C92.8064 190.686 92.8897 189.933 93.2728 189.261C93.6595 188.587 94.257 188.145 95.0656 187.935C95.6685 187.778 96.2369 187.795 96.7707 187.988C97.3079 188.179 97.7461 188.512 98.0851 188.985C98.4233 189.456 98.6198 190.011 98.6749 190.652L94.3358 191.78C94.5277 192.117 94.8108 192.362 95.1852 192.514C95.5597 192.666 95.956 192.687 96.3742 192.578C97.0294 192.408 97.5363 192.025 97.8949 191.429L98.7742 191.999C98.5848 192.387 98.3094 192.722 97.9479 193.006C97.5864 193.29 97.1459 193.5 96.6267 193.635ZM94.0697 190.8L97.3475 189.948C97.1629 189.553 96.8894 189.267 96.527 189.089C96.1671 188.908 95.7711 188.873 95.339 188.985C94.9173 189.095 94.5914 189.316 94.3613 189.647C94.1339 189.974 94.0366 190.359 94.0697 190.8ZM105.223 190.539C104.858 191.207 104.285 191.642 103.504 191.846C102.723 192.049 102.014 191.939 101.376 191.517L102.197 194.675L101.042 194.975L98.9813 187.055L100.116 186.76L100.305 187.487C100.661 186.784 101.232 186.33 102.016 186.126C102.797 185.923 103.51 186.024 104.155 186.43C104.803 186.834 105.236 187.453 105.452 188.286C105.669 189.119 105.593 189.87 105.223 190.539ZM100.98 188.087C100.742 188.503 100.691 188.97 100.826 189.489C100.961 190.008 101.234 190.393 101.645 190.643C102.059 190.889 102.518 190.947 103.024 190.815C103.533 190.683 103.905 190.411 104.14 190C104.378 189.585 104.429 189.114 104.292 188.587C104.155 188.061 103.882 187.676 103.472 187.433C103.066 187.185 102.608 187.128 102.099 187.26C101.594 187.392 101.221 187.667 100.98 188.087ZM109.89 190.184C109.039 190.406 108.28 190.32 107.613 189.928C106.948 189.532 106.506 188.912 106.286 188.069C106.069 187.236 106.153 186.483 106.536 185.81C106.923 185.136 107.52 184.694 108.329 184.484C108.932 184.327 109.5 184.345 110.034 184.537C110.571 184.729 111.009 185.061 111.348 185.535C111.686 186.005 111.883 186.561 111.938 187.201L107.599 188.33C107.791 188.667 108.074 188.911 108.448 189.063C108.823 189.215 109.219 189.237 109.637 189.128C110.292 188.958 110.799 188.575 111.158 187.979L112.037 188.548C111.848 188.936 111.572 189.272 111.211 189.556C110.849 189.84 110.409 190.049 109.89 190.184ZM107.333 187.35L110.611 186.497C110.426 186.102 110.152 185.816 109.79 185.639C109.43 185.457 109.034 185.422 108.602 185.535C108.18 185.645 107.854 185.865 107.624 186.197C107.397 186.524 107.3 186.908 107.333 187.35ZM114.741 188.783L113.599 184.391L111.712 184.882L111.434 183.816L116.338 182.54L116.615 183.607L114.754 184.091L115.896 188.482L114.741 188.783ZM120.053 187.479C119.471 187.63 118.961 187.598 118.521 187.381C118.08 187.16 117.794 186.796 117.661 186.287C117.518 185.736 117.606 185.243 117.924 184.807C118.242 184.37 118.736 184.065 119.405 183.891C119.938 183.752 120.497 183.706 121.082 183.751L121.01 183.474C120.916 183.115 120.74 182.881 120.482 182.774C120.223 182.666 119.857 182.674 119.383 182.797C118.87 182.931 118.337 183.214 117.784 183.648L117.203 182.767C117.561 182.484 117.894 182.262 118.202 182.1C118.509 181.934 118.838 181.806 119.19 181.714C119.967 181.512 120.61 181.537 121.118 181.788C121.625 182.035 121.966 182.494 122.14 183.163L123.04 186.624L121.937 186.911L121.746 186.218C121.586 186.52 121.359 186.782 121.063 187.004C120.77 187.222 120.433 187.38 120.053 187.479ZM118.802 185.929C118.863 186.166 118.999 186.33 119.209 186.42C119.422 186.51 119.692 186.512 120.02 186.427C120.476 186.308 120.825 186.087 121.064 185.765C121.304 185.442 121.396 185.087 121.34 184.699C120.739 184.666 120.223 184.705 119.791 184.818C119.408 184.917 119.129 185.064 118.957 185.258C118.786 185.447 118.735 185.671 118.802 185.929ZM133.422 185.603L133.012 184.029L124.512 186.241L123.092 180.783L124.248 180.482L125.389 184.868L127.992 184.191L126.851 179.805L127.985 179.51L129.126 183.896L131.725 183.22L130.584 178.834L131.739 178.533L132.88 182.92L133.826 182.673L134.514 185.319L133.422 185.603ZM135.091 183.489L133.671 178.031L134.816 177.733L135.778 181.434L137.759 176.967L138.831 176.689L140.25 182.146L139.105 182.444L138.141 178.738L136.157 183.211L135.091 183.489ZM143.097 181.406L141.955 177.014L140.067 177.505L139.79 176.439L144.694 175.163L144.971 176.23L143.11 176.714L144.252 181.105L143.097 181.406ZM149.355 179.917C148.504 180.139 147.745 180.053 147.078 179.661C146.413 179.265 145.971 178.645 145.751 177.802C145.535 176.969 145.618 176.216 146.001 175.543C146.388 174.87 146.985 174.428 147.794 174.217C148.397 174.06 148.965 174.078 149.499 174.27C150.036 174.462 150.474 174.794 150.813 175.268C151.151 175.738 151.348 176.294 151.403 176.934L147.064 178.063C147.256 178.4 147.539 178.645 147.913 178.797C148.288 178.948 148.684 178.97 149.102 178.861C149.758 178.691 150.264 178.308 150.623 177.712L151.502 178.281C151.313 178.669 151.038 179.005 150.676 179.289C150.314 179.573 149.874 179.782 149.355 179.917ZM146.798 177.083L150.076 176.23C149.891 175.835 149.618 175.549 149.255 175.372C148.895 175.19 148.499 175.156 148.067 175.268C147.645 175.378 147.319 175.598 147.089 175.93C146.862 176.257 146.765 176.641 146.798 177.083ZM158.54 180.017L157.931 177.675C157.074 177.842 156.32 177.732 155.668 177.343C155.019 176.95 154.59 176.354 154.383 175.556C154.175 174.758 154.259 174.031 154.636 173.375C155.014 172.715 155.619 172.249 156.449 171.977L155.838 169.63L156.993 169.329L157.604 171.676C158.461 171.509 159.214 171.62 159.862 172.01C160.51 172.399 160.939 172.995 161.147 173.796C161.356 174.598 161.272 175.327 160.896 175.983C160.519 176.639 159.916 177.103 159.086 177.375L159.696 179.717L158.54 180.017ZM155.677 173.925C155.457 174.324 155.411 174.768 155.538 175.256C155.665 175.744 155.922 176.11 156.31 176.355C156.696 176.597 157.15 176.675 157.67 176.588L156.751 173.054C156.254 173.231 155.896 173.522 155.677 173.925ZM158.784 176.298C159.281 176.12 159.638 175.832 159.854 175.433C160.073 175.03 160.119 174.585 159.992 174.097C159.865 173.609 159.608 173.244 159.222 173.002C158.838 172.756 158.385 172.677 157.865 172.764L158.784 176.298ZM164.482 175.921C163.9 176.072 163.389 176.039 162.95 175.822C162.509 175.602 162.223 175.238 162.09 174.729C161.947 174.178 162.035 173.685 162.353 173.248C162.671 172.812 163.165 172.507 163.834 172.333C164.367 172.194 164.926 172.147 165.511 172.192L165.439 171.915C165.345 171.556 165.169 171.323 164.91 171.216C164.652 171.108 164.285 171.116 163.811 171.239C163.299 171.372 162.766 171.656 162.213 172.09L161.632 171.209C161.99 170.926 162.323 170.703 162.631 170.542C162.938 170.376 163.267 170.248 163.619 170.156C164.396 169.954 165.039 169.978 165.547 170.229C166.054 170.477 166.395 170.935 166.569 171.605L167.469 175.065L166.366 175.352L166.175 174.66C166.015 174.962 165.788 175.224 165.492 175.446C165.199 175.663 164.862 175.822 164.482 175.921ZM163.231 174.371C163.292 174.608 163.428 174.772 163.638 174.862C163.851 174.952 164.121 174.954 164.449 174.869C164.905 174.75 165.253 174.529 165.493 174.206C165.733 173.884 165.825 173.528 165.769 173.141C165.168 173.108 164.652 173.147 164.22 173.259C163.836 173.359 163.558 173.506 163.386 173.7C163.215 173.889 163.164 174.113 163.231 174.371ZM168.941 174.682L167.521 169.225L168.666 168.927L169.629 172.628L171.609 168.161L172.681 167.882L174.101 173.34L172.956 173.638L171.992 169.931L170.007 174.405L168.941 174.682ZM167.844 166.646L168.667 166.248C168.778 166.531 168.914 166.725 169.074 166.828C169.239 166.93 169.436 166.952 169.666 166.892C169.899 166.831 170.061 166.716 170.151 166.548C170.245 166.378 170.271 166.143 170.23 165.841L171.142 165.788C171.209 166.314 171.139 166.734 170.934 167.047C170.729 167.358 170.376 167.578 169.878 167.707C169.38 167.837 168.965 167.816 168.634 167.646C168.306 167.471 168.042 167.137 167.844 166.646ZM174.677 172.197C174.917 172.06 175.101 171.939 175.23 171.835C175.36 171.731 175.461 171.608 175.536 171.465C175.611 171.323 175.65 171.168 175.655 170.999C175.658 170.827 175.636 170.606 175.588 170.335L175.052 167.266L179.25 166.173L180.67 171.631L179.514 171.932L178.372 167.54L176.401 168.053L176.776 170.138C176.913 170.906 176.868 171.509 176.644 171.947C176.419 172.385 175.948 172.778 175.231 173.124L174.677 172.197ZM187.019 170.119C186.21 170.329 185.469 170.234 184.795 169.832C184.124 169.426 183.682 168.812 183.468 167.99C183.253 167.164 183.34 166.412 183.729 165.734C184.122 165.055 184.726 164.609 185.542 164.397C185.998 164.278 186.444 164.255 186.88 164.328C187.315 164.397 187.701 164.557 188.037 164.808L187.525 165.734C187.272 165.577 186.998 165.477 186.704 165.434C186.41 165.388 186.123 165.401 185.844 165.474C185.353 165.602 184.992 165.874 184.762 166.291C184.534 166.704 184.488 167.17 184.623 167.689C184.76 168.215 185.025 168.604 185.418 168.856C185.81 169.103 186.263 169.16 186.779 169.026C187.093 168.944 187.368 168.806 187.603 168.611C187.842 168.411 188.024 168.166 188.149 167.877L189.103 168.388C188.951 168.807 188.693 169.168 188.33 169.471C187.965 169.771 187.528 169.987 187.019 170.119ZM195.506 167.911C194.75 168.108 194.056 168.058 193.424 167.761C192.795 167.459 192.334 166.967 192.041 166.284L190.886 166.585L191.468 168.822L190.313 169.123L188.893 163.665L190.048 163.364L190.607 165.513L191.783 165.207C191.723 164.489 191.895 163.857 192.3 163.309C192.703 162.757 193.276 162.385 194.018 162.192C194.865 161.971 195.627 162.058 196.302 162.452C196.977 162.845 197.424 163.462 197.643 164.302C197.861 165.142 197.772 165.898 197.374 166.571C196.976 167.244 196.353 167.691 195.506 167.911ZM193.169 164.098C192.93 164.51 192.879 164.979 193.016 165.506C193.153 166.032 193.427 166.418 193.837 166.665C194.246 166.908 194.706 166.964 195.214 166.832C195.723 166.699 196.097 166.427 196.336 166.015C196.574 165.6 196.624 165.129 196.488 164.603C196.351 164.076 196.078 163.692 195.668 163.448C195.258 163.202 194.798 163.144 194.29 163.277C193.781 163.409 193.407 163.683 193.169 164.098ZM199.016 168.539L198.328 165.893L199.002 165.718C199.131 165.513 199.208 165.273 199.234 164.999C199.258 164.721 199.228 164.347 199.143 163.878L198.666 161.122L202.869 160.029L204.01 164.415L204.967 164.166L205.655 166.811L204.563 167.096L204.153 165.522L199.699 166.681L200.108 168.254L199.016 168.539ZM200.325 165.396L202.871 164.734L202.002 161.393L200.01 161.911L200.326 163.682C200.455 164.367 200.455 164.938 200.325 165.396ZM207.719 164.672C207.137 164.824 206.626 164.791 206.187 164.574C205.746 164.354 205.46 163.989 205.327 163.481C205.184 162.93 205.272 162.437 205.59 162C205.908 161.564 206.402 161.259 207.071 161.085C207.604 160.946 208.163 160.899 208.748 160.944L208.676 160.667C208.582 160.308 208.406 160.075 208.147 159.967C207.889 159.86 207.522 159.868 207.048 159.991C206.536 160.124 206.003 160.408 205.45 160.842L204.869 159.961C205.227 159.678 205.56 159.455 205.868 159.293C206.175 159.128 206.504 159 206.856 158.908C207.633 158.706 208.276 158.73 208.784 158.981C209.291 159.229 209.632 159.687 209.806 160.356L210.706 163.817L209.603 164.104L209.412 163.412C209.252 163.714 209.025 163.976 208.729 164.198C208.436 164.415 208.099 164.574 207.719 164.672ZM206.468 163.123C206.529 163.36 206.665 163.523 206.875 163.614C207.088 163.704 207.358 163.706 207.686 163.621C208.142 163.502 208.49 163.281 208.73 162.958C208.97 162.635 209.062 162.28 209.006 161.893C208.405 161.859 207.889 161.899 207.457 162.011C207.073 162.111 206.795 162.258 206.623 162.452C206.452 162.641 206.401 162.865 206.468 163.123ZM214.643 162.793L213.223 157.335L214.368 157.037L215.331 160.739L217.311 156.272L218.383 155.993L219.803 161.451L218.658 161.749L217.694 158.042L215.709 162.516L214.643 162.793ZM220.379 160.307C220.619 160.17 220.803 160.05 220.932 159.946C221.061 159.841 221.163 159.718 221.238 159.576C221.313 159.434 221.352 159.278 221.357 159.11C221.36 158.938 221.338 158.716 221.29 158.446L220.754 155.376L224.952 154.284L226.372 159.742L225.216 160.042L224.074 155.651L222.103 156.164L222.478 158.249C222.614 159.017 222.57 159.62 222.346 160.058C222.121 160.496 221.65 160.888 220.933 161.235L220.379 160.307ZM227.917 159.34L226.497 153.882L227.642 153.584L228.604 157.286L230.585 152.819L231.656 152.54L233.076 157.998L231.931 158.295L230.967 154.589L228.983 159.062L227.917 159.34ZM238.88 156.577C237.964 156.815 237.123 156.738 236.358 156.346L236.75 155.34C237.366 155.607 237.976 155.662 238.579 155.506C238.938 155.412 239.201 155.28 239.369 155.11C239.537 154.94 239.593 154.749 239.538 154.536C239.488 154.344 239.364 154.218 239.166 154.158C238.972 154.097 238.728 154.105 238.435 154.181L237.312 154.473L237.044 153.444L238.126 153.162C238.37 153.099 238.55 152.998 238.667 152.859C238.783 152.721 238.818 152.561 238.771 152.38C238.666 151.979 238.288 151.864 237.637 152.033C237.124 152.167 236.658 152.478 236.239 152.966L235.432 152.289C235.977 151.596 236.649 151.146 237.447 150.939C238.116 150.764 238.661 150.777 239.081 150.977C239.504 151.172 239.773 151.492 239.889 151.939C240.011 152.406 239.906 152.84 239.576 153.243C239.87 153.303 240.117 153.429 240.315 153.619C240.516 153.805 240.654 154.041 240.728 154.327C240.86 154.832 240.757 155.289 240.42 155.696C240.087 156.103 239.574 156.397 238.88 156.577ZM243.888 155.263C243.306 155.414 242.796 155.382 242.356 155.165C241.915 154.945 241.629 154.58 241.496 154.071C241.353 153.521 241.441 153.027 241.759 152.591C242.077 152.155 242.571 151.849 243.24 151.675C243.773 151.537 244.332 151.49 244.917 151.535L244.845 151.258C244.751 150.899 244.575 150.666 244.317 150.558C244.058 150.45 243.691 150.458 243.218 150.582C242.705 150.715 242.172 150.999 241.619 151.433L241.038 150.551C241.396 150.268 241.729 150.046 242.037 149.884C242.344 149.719 242.673 149.59 243.025 149.499C243.802 149.296 244.445 149.321 244.953 149.572C245.46 149.819 245.801 150.278 245.975 150.947L246.875 154.408L245.772 154.695L245.581 154.002C245.421 154.304 245.194 154.566 244.898 154.788C244.605 155.006 244.268 155.164 243.888 155.263ZM242.637 153.713C242.698 153.95 242.834 154.114 243.044 154.205C243.257 154.294 243.527 154.296 243.855 154.211C244.311 154.092 244.659 153.872 244.899 153.549C245.139 153.226 245.231 152.871 245.175 152.484C244.574 152.45 244.058 152.489 243.626 152.602C243.243 152.702 242.964 152.848 242.792 153.042C242.621 153.232 242.57 153.455 242.637 153.713ZM248.347 154.025L246.927 148.567L250.597 147.612L250.875 148.679L248.36 149.333L249.502 153.724L248.347 154.025ZM257.778 150.851C257.412 151.52 256.839 151.955 256.058 152.158C255.277 152.361 254.568 152.252 253.93 151.83L254.751 154.988L253.596 155.288L251.536 147.368L252.67 147.073L252.859 147.8C253.216 147.097 253.786 146.643 254.57 146.439C255.351 146.236 256.064 146.337 256.709 146.742C257.357 147.147 257.79 147.765 258.007 148.598C258.223 149.431 258.147 150.182 257.778 150.851ZM253.534 148.4C253.296 148.815 253.245 149.283 253.38 149.802C253.515 150.321 253.788 150.706 254.199 150.956C254.613 151.202 255.073 151.259 255.578 151.128C256.087 150.996 256.459 150.724 256.694 150.313C256.932 149.897 256.983 149.427 256.846 148.9C256.709 148.374 256.436 147.989 256.027 147.746C255.62 147.498 255.162 147.441 254.653 147.573C254.148 147.704 253.775 147.98 253.534 148.4ZM260.981 153.412C260.639 153.501 260.296 153.525 259.95 153.484L259.99 152.414C260.187 152.429 260.399 152.408 260.626 152.349C260.884 152.282 261.072 152.169 261.191 152.012C261.311 151.858 261.389 151.605 261.424 151.254L261.46 150.898L257.55 145.803L258.815 145.474L260.789 148.103L261.631 149.241L261.751 147.853L262.036 144.637L263.264 144.317L262.579 151.338C262.468 152.472 261.936 153.163 260.981 153.412ZM267.265 149.193C266.348 149.431 265.508 149.354 264.743 148.961L265.135 147.955C265.751 148.223 266.361 148.278 266.964 148.121C267.323 148.028 267.586 147.896 267.754 147.726C267.922 147.556 267.978 147.364 267.923 147.152C267.873 146.96 267.749 146.834 267.551 146.774C267.357 146.713 267.113 146.721 266.82 146.797L265.696 147.089L265.428 146.059L266.51 145.778C266.754 145.714 266.935 145.613 267.051 145.475C267.168 145.337 267.203 145.177 267.155 144.996C267.051 144.595 266.673 144.479 266.021 144.649C265.509 144.782 265.043 145.093 264.623 145.582L263.816 144.905C264.362 144.212 265.033 143.762 265.832 143.554C266.501 143.38 267.045 143.393 267.466 143.592C267.889 143.787 268.158 144.108 268.274 144.554C268.396 145.021 268.291 145.456 267.96 145.858C268.255 145.919 268.502 146.045 268.7 146.235C268.901 146.421 269.039 146.657 269.113 146.943C269.245 147.448 269.142 147.904 268.805 148.312C268.472 148.719 267.958 149.012 267.265 149.193ZM270.701 148.209L269.282 142.752L270.426 142.454L271.389 146.155L273.37 141.688L274.441 141.409L275.861 146.867L274.716 147.165L273.752 143.458L271.768 147.932L270.701 148.209ZM278.708 146.126L277.565 141.735L275.678 142.226L275.401 141.16L280.304 139.884L280.582 140.95L278.721 141.435L279.863 145.826L278.708 146.126ZM284.966 144.638C284.115 144.859 283.356 144.774 282.689 144.382C282.024 143.986 281.581 143.366 281.362 142.522C281.145 141.689 281.229 140.937 281.612 140.264C281.998 139.59 282.596 139.148 283.405 138.938C284.007 138.781 284.576 138.799 285.11 138.991C285.647 139.183 286.085 139.515 286.424 139.989C286.762 140.459 286.959 141.014 287.014 141.655L282.675 142.784C282.867 143.121 283.15 143.365 283.524 143.517C283.899 143.669 284.295 143.691 284.713 143.582C285.368 143.411 285.875 143.028 286.234 142.433L287.113 143.002C286.924 143.39 286.648 143.726 286.287 144.01C285.925 144.294 285.485 144.503 284.966 144.638ZM282.409 141.804L285.686 140.951C285.502 140.556 285.228 140.27 284.866 140.093C284.506 139.911 284.11 139.876 283.678 139.989C283.256 140.098 282.93 140.319 282.7 140.65C282.473 140.978 282.376 141.362 282.409 141.804Z" fill="black"/>
<path d="M236.742 159.042L252.911 154.836L253.05 155.369L236.881 159.575L236.742 159.042ZM255.134 154.257L259.3 153.174L259.439 153.707L255.273 154.791L255.134 154.257ZM262.824 152.257L288.508 145.575L288.647 146.108L262.963 152.79L262.824 152.257Z" fill="black"/>
<path opacity="0.5" d="M141.729 200.733L140.022 194.173L142.712 193.474C143.288 193.324 143.8 193.37 144.247 193.611C144.697 193.849 144.991 194.235 145.13 194.769C145.28 195.345 145.176 195.859 144.818 196.31C145.133 196.397 145.405 196.558 145.632 196.792C145.861 197.022 146.019 197.307 146.107 197.645C146.246 198.179 146.171 198.665 145.882 199.105C145.592 199.545 145.152 199.842 144.56 199.996L141.729 200.733ZM142.516 199.497L144.213 199.056C144.54 198.971 144.775 198.819 144.92 198.599C145.067 198.375 145.102 198.117 145.026 197.824C144.95 197.531 144.793 197.324 144.557 197.204C144.322 197.079 144.042 197.059 143.716 197.144L142.019 197.585L142.516 199.497ZM141.781 196.671L143.377 196.255C143.67 196.179 143.88 196.036 144.008 195.827C144.136 195.618 144.165 195.378 144.094 195.107C144.024 194.835 143.882 194.639 143.668 194.519C143.454 194.399 143.201 194.377 142.908 194.453L141.312 194.868L141.781 196.671ZM147.664 199.189L146.422 194.413L147.424 194.153L148.266 197.391L149.999 193.483L150.937 193.239L152.179 198.014L151.177 198.275L150.334 195.032L148.597 198.946L147.664 199.189ZM153.349 199.18L152.747 196.865L153.337 196.712C153.45 196.533 153.518 196.323 153.54 196.083C153.561 195.839 153.535 195.513 153.461 195.102L153.043 192.691L156.721 191.734L157.719 195.572L158.556 195.354L159.159 197.668L158.203 197.917L157.844 196.54L153.947 197.554L154.305 198.931L153.349 199.18ZM154.495 196.43L156.722 195.851L155.962 192.928L154.219 193.381L154.495 194.931C154.609 195.529 154.609 196.029 154.495 196.43ZM161.691 195.662C160.947 195.855 160.283 195.78 159.699 195.438C159.117 195.091 158.73 194.548 158.538 193.81C158.349 193.082 158.422 192.423 158.757 191.834C159.095 191.245 159.618 190.858 160.326 190.674C160.853 190.537 161.35 190.552 161.817 190.721C162.288 190.888 162.671 191.179 162.968 191.593C163.263 192.005 163.435 192.491 163.484 193.051L159.687 194.039C159.855 194.334 160.103 194.548 160.43 194.681C160.758 194.814 161.105 194.833 161.471 194.737C162.044 194.588 162.487 194.253 162.801 193.732L163.571 194.23C163.405 194.57 163.164 194.863 162.848 195.112C162.531 195.36 162.146 195.543 161.691 195.662ZM159.454 193.181L162.322 192.435C162.161 192.09 161.921 191.84 161.604 191.684C161.289 191.525 160.943 191.495 160.565 191.593C160.196 191.689 159.911 191.882 159.709 192.172C159.51 192.459 159.425 192.795 159.454 193.181ZM168.899 193.039C168.548 193.629 167.999 194.021 167.252 194.215C166.504 194.409 165.834 194.335 165.24 193.991C164.646 193.648 164.253 193.108 164.062 192.373C163.871 191.638 163.951 190.976 164.302 190.387C164.653 189.797 165.203 189.405 165.95 189.211C166.697 189.016 167.367 189.091 167.962 189.435C168.556 189.778 168.948 190.318 169.139 191.053C169.331 191.787 169.251 192.45 168.899 193.039ZM165.207 190.879C164.998 191.239 164.953 191.65 165.073 192.11C165.193 192.571 165.432 192.909 165.791 193.125C166.152 193.337 166.557 193.385 167.005 193.268C167.454 193.152 167.782 192.913 167.991 192.553C168.203 192.188 168.248 191.776 168.128 191.316C168.009 190.855 167.768 190.519 167.407 190.307C167.048 190.091 166.644 190.041 166.196 190.158C165.748 190.274 165.418 190.515 165.207 190.879ZM172.83 192.642L171.588 187.866L173.87 187.272C174.361 187.145 174.786 187.156 175.144 187.307C175.502 187.455 175.729 187.717 175.827 188.092C175.883 188.308 175.885 188.521 175.832 188.73C175.782 188.939 175.684 189.124 175.537 189.286C175.78 189.33 175.992 189.438 176.173 189.609C176.356 189.776 176.481 189.984 176.546 190.234C176.65 190.634 176.577 191 176.328 191.331C176.082 191.662 175.709 191.893 175.209 192.023L172.83 192.642ZM173.62 191.567L174.979 191.213C175.21 191.153 175.372 191.054 175.463 190.917C175.557 190.778 175.579 190.61 175.527 190.411C175.475 190.213 175.375 190.077 175.225 190.002C175.078 189.923 174.888 189.914 174.656 189.974L173.298 190.327L173.62 191.567ZM173.096 189.554L174.359 189.226C174.572 189.17 174.723 189.077 174.809 188.947C174.896 188.818 174.916 188.663 174.869 188.483C174.822 188.303 174.729 188.177 174.59 188.106C174.451 188.035 174.275 188.027 174.061 188.082L172.799 188.411L173.096 189.554ZM182.627 187.851L179.961 185.698L181.201 190.464L180.154 190.736L178.447 184.177L179.385 183.933L182.584 186.544L184.106 182.705L185.043 182.461L186.75 189.021L185.698 189.294L184.458 184.528L183.185 187.706L182.627 187.851ZM188.248 188.631L186.542 182.071L188.929 181.45C189.619 181.271 190.227 181.331 190.754 181.63C191.281 181.929 191.632 182.414 191.806 183.085C191.981 183.756 191.911 184.35 191.596 184.868C191.281 185.383 190.779 185.731 190.09 185.91L188.749 186.259L189.296 188.358L188.248 188.631ZM188.484 185.278L189.761 184.946C190.166 184.84 190.459 184.645 190.639 184.361C190.818 184.073 190.858 183.739 190.759 183.357C190.659 182.973 190.461 182.701 190.165 182.54C189.869 182.376 189.518 182.347 189.112 182.453L187.836 182.785L188.484 185.278ZM196.576 186.464L196.247 185.202L192.807 186.097L192.556 185.132L194.942 179.886L195.898 179.637L197.019 183.946L197.797 183.744L198.054 184.732L197.276 184.934L197.605 186.197L196.576 186.464ZM193.823 184.802L196.014 184.232L195.315 181.542L193.823 184.802ZM204.213 186.778L203.68 184.729C202.93 184.875 202.27 184.778 201.699 184.438C201.131 184.094 200.756 183.573 200.575 182.875C200.393 182.176 200.467 181.54 200.796 180.966C201.128 180.388 201.656 179.98 202.383 179.743L201.848 177.689L202.859 177.426L203.393 179.48C204.143 179.333 204.802 179.431 205.369 179.771C205.937 180.112 206.311 180.633 206.494 181.335C206.676 182.036 206.603 182.674 206.274 183.248C205.944 183.822 205.417 184.228 204.691 184.466L205.224 186.515L204.213 186.778ZM201.708 181.447C201.515 181.796 201.475 182.185 201.586 182.612C201.697 183.039 201.922 183.359 202.261 183.574C202.599 183.785 202.996 183.853 203.452 183.777L202.647 180.685C202.212 180.84 201.899 181.094 201.708 181.447ZM204.426 183.523C204.861 183.368 205.173 183.116 205.362 182.767C205.554 182.414 205.594 182.025 205.483 181.598C205.372 181.171 205.147 180.852 204.809 180.64C204.473 180.425 204.077 180.355 203.622 180.431L204.426 183.523ZM212.061 181.811C211.71 182.4 211.16 182.792 210.413 182.987C209.666 183.181 208.995 183.106 208.401 182.763C207.807 182.419 207.415 181.88 207.224 181.145C207.032 180.41 207.112 179.748 207.464 179.158C207.815 178.569 208.364 178.177 209.111 177.982C209.858 177.788 210.529 177.863 211.123 178.206C211.717 178.55 212.11 179.089 212.301 179.824C212.492 180.559 212.412 181.221 212.061 181.811ZM208.368 179.651C208.159 180.011 208.115 180.421 208.234 180.882C208.354 181.342 208.594 181.681 208.953 181.896C209.314 182.109 209.719 182.156 210.167 182.04C210.615 181.923 210.944 181.685 211.153 181.324C211.364 180.96 211.41 180.547 211.29 180.087C211.17 179.626 210.93 179.29 210.569 179.078C210.21 178.862 209.806 178.813 209.358 178.929C208.909 179.046 208.58 179.286 208.368 179.651ZM218.182 180.213C217.862 180.798 217.361 181.179 216.678 181.357C215.995 181.535 215.374 181.439 214.816 181.07L215.534 183.832L214.523 184.095L212.721 177.165L213.713 176.907L213.879 177.543C214.191 176.928 214.69 176.531 215.376 176.353C216.059 176.175 216.683 176.263 217.247 176.618C217.815 176.972 218.193 177.513 218.383 178.242C218.572 178.971 218.506 179.628 218.182 180.213ZM214.469 178.068C214.261 178.432 214.216 178.841 214.334 179.295C214.453 179.749 214.692 180.086 215.051 180.305C215.413 180.52 215.815 180.57 216.258 180.455C216.703 180.339 217.028 180.102 217.234 179.742C217.443 179.378 217.487 178.966 217.367 178.506C217.247 178.046 217.008 177.709 216.65 177.496C216.294 177.279 215.894 177.229 215.448 177.345C215.006 177.46 214.68 177.701 214.469 178.068ZM222.114 178.399L220.203 176.855L221.046 180.098L220.045 180.359L218.802 175.583L219.735 175.341L222.078 177.232L223.194 174.441L224.131 174.197L225.374 178.972L224.372 179.233L223.528 175.99L222.621 178.267L222.114 178.399ZM228.096 178.333C227.587 178.465 227.14 178.437 226.755 178.247C226.37 178.054 226.119 177.735 226.003 177.29C225.878 176.808 225.954 176.376 226.233 175.995C226.511 175.613 226.943 175.346 227.528 175.193C227.995 175.072 228.484 175.031 228.996 175.071L228.933 174.828C228.851 174.514 228.697 174.31 228.471 174.216C228.244 174.122 227.924 174.128 227.509 174.236C227.061 174.353 226.595 174.601 226.111 174.981L225.602 174.21C225.916 173.962 226.207 173.768 226.476 173.626C226.744 173.481 227.033 173.369 227.341 173.289C228.021 173.112 228.583 173.133 229.028 173.353C229.471 173.57 229.77 173.971 229.922 174.556L230.71 177.584L229.744 177.835L229.577 177.229C229.437 177.494 229.238 177.723 228.979 177.917C228.723 178.108 228.428 178.246 228.096 178.333ZM227.001 176.977C227.055 177.184 227.174 177.327 227.357 177.406C227.543 177.485 227.78 177.487 228.067 177.412C228.466 177.308 228.771 177.115 228.981 176.833C229.19 176.55 229.271 176.24 229.222 175.901C228.696 175.871 228.245 175.906 227.866 176.004C227.531 176.091 227.288 176.22 227.136 176.389C226.987 176.555 226.942 176.751 227.001 176.977ZM232.857 177.026L231.858 173.183L230.206 173.613L229.964 172.68L234.254 171.563L234.497 172.497L232.869 172.92L233.868 176.763L232.857 177.026ZM238.333 175.723C237.589 175.917 236.925 175.842 236.341 175.499C235.759 175.152 235.372 174.61 235.18 173.872C234.99 173.143 235.063 172.484 235.398 171.896C235.737 171.306 236.26 170.92 236.967 170.736C237.495 170.598 237.992 170.614 238.459 170.782C238.929 170.95 239.312 171.241 239.609 171.655C239.905 172.066 240.077 172.552 240.125 173.113L236.328 174.101C236.496 174.396 236.744 174.61 237.072 174.742C237.399 174.875 237.746 174.894 238.112 174.799C238.685 174.65 239.129 174.315 239.443 173.794L240.212 174.292C240.046 174.631 239.805 174.925 239.489 175.173C239.173 175.422 238.787 175.605 238.333 175.723ZM236.096 173.243L238.964 172.497C238.802 172.151 238.563 171.901 238.246 171.746C237.931 171.587 237.584 171.557 237.206 171.655C236.837 171.751 236.552 171.944 236.351 172.234C236.152 172.52 236.067 172.857 236.096 173.243Z" fill="black"/>
<defs>
<clipPath id="clip0_72_462">
<rect width="33.1885" height="33.1885" fill="white" transform="translate(156.527 120.821) rotate(-14.5823)"/>
</clipPath>
</defs>
</svg>
